<svg xmlns="http://www.w3.org/2000/svg" xmlns:xlink="http://www.w3.org/1999/xlink" version="1.1" width="801.3" height="619.6" viewBox="109.2 22.9 801.3 619.6"><g><g transform="translate(198,23)"><g><g>
<path d="M516,0H0v220h516V0L516,0z" stroke="#000000" stroke-dasharray="5,5" fill="#FFFFFF"/>
<rect x="22.6" y="10" width="470.9" height="199.9" fill="none"/>
<circle fill="none" cx="258" cy="0" r="0.1"/>
<circle fill="none" cx="385.9" cy="0" r="0.1"/>
<circle fill="none" cx="516" cy="55.5" r="0.1"/>
<circle fill="none" cx="516" cy="110" r="0.1"/>
<circle fill="none" cx="516" cy="164.5" r="0.1"/>
<circle fill="none" cx="385.9" cy="220" r="0.1"/>
<circle fill="none" cx="258" cy="220" r="0.1"/>
<circle fill="none" cx="130.2" cy="220" r="0.1"/>
<circle fill="none" cx="0" cy="164.5" r="0.1"/>
<circle fill="none" cx="0" cy="110" r="0.1"/>
<circle fill="none" cx="0" cy="55.5" r="0.1"/>
<circle fill="none" cx="130.2" cy="0" r="0.1"/>
</g></g><rect stroke="none" stroke-width="0" fill="#FFFFFF" x="0" y="0" width="0" height="0" transform="translate(515.9,109.9)"/><path stroke="#000000" fill="none" d=""/><text font-family="OpenSansCondensedLight" font-size="14pt" fill="black" transform="translate(515.9,109.9)"/><rect stroke-width="0" fill="none" width="470.9" height="199.9" transform="translate(22.6,10)"/><text font-family="OpenSansCondensedLight" font-size="14pt" fill="black" transform="translate(22.6,10)" text-anchor="middle"><tspan x="235.4" y="16.8">DATA SERVICE 102</tspan></text><path stroke="#000000" fill="none" transform="translate(22.6,10)" d="M 288.4 19 316.4 19"/></g><g transform="translate(261,103)"><g><g>
<path d="M94.5,0H0v94.5h94.5V0L94.5,0z" stroke="#000000" stroke-dasharray="none" fill="#FFFFFF"/>
<rect x="4.1" y="4.3" width="86.2" height="85.9" fill="none"/>
<circle fill="none" cx="47.2" cy="0" r="0.1"/>
<circle fill="none" cx="70.7" cy="0" r="0.1"/>
<circle fill="none" cx="94.5" cy="23.8" r="0.1"/>
<circle fill="none" cx="94.5" cy="47.2" r="0.1"/>
<circle fill="none" cx="94.5" cy="70.7" r="0.1"/>
<circle fill="none" cx="70.7" cy="94.5" r="0.1"/>
<circle fill="none" cx="47.2" cy="94.5" r="0.1"/>
<circle fill="none" cx="23.8" cy="94.5" r="0.1"/>
<circle fill="none" cx="0" cy="70.7" r="0.1"/>
<circle fill="none" cx="0" cy="47.2" r="0.1"/>
<circle fill="none" cx="0" cy="23.8" r="0.1"/>
<circle fill="none" cx="23.8" cy="0" r="0.1"/>
</g></g><rect stroke="none" stroke-width="0" fill="#FFFFFF" x="0" y="0" width="0" height="0" transform="translate(94.4,47.1)"/><path stroke="#000000" fill="none" d=""/><text font-family="OpenSansCondensedLight" font-size="14pt" fill="black" transform="translate(94.4,47.1)"/><rect stroke-width="0" fill="none" width="86.2" height="85.9" transform="translate(4.1,4.3)"/><text font-family="OpenSansCondensedLight" font-size="14pt" fill="black" transform="translate(4.1,4.3)" text-anchor="middle"><tspan x="43.1" y="17.7">CONNECTION</tspan><tspan x="43.1" y="38.7">DATA</tspan><tspan x="43.1" y="59.7">EXCHANGE</tspan><tspan x="43.1" y="80.7">104</tspan></text><path stroke="#000000" fill="none" transform="translate(4.1,4.3)" d="M 29.1 83 57.1 83"/></g><g transform="translate(574,103)"><g><g>
<path d="M94.5,0H0v94.5h94.5V0L94.5,0z" stroke="#000000" stroke-dasharray="none" fill="#FFFFFF"/>
<rect x="4.1" y="4.3" width="86.2" height="85.9" fill="none"/>
<circle fill="none" cx="47.2" cy="0" r="0.1"/>
<circle fill="none" cx="70.7" cy="0" r="0.1"/>
<circle fill="none" cx="94.5" cy="23.8" r="0.1"/>
<circle fill="none" cx="94.5" cy="47.2" r="0.1"/>
<circle fill="none" cx="94.5" cy="70.7" r="0.1"/>
<circle fill="none" cx="70.7" cy="94.5" r="0.1"/>
<circle fill="none" cx="47.2" cy="94.5" r="0.1"/>
<circle fill="none" cx="23.8" cy="94.5" r="0.1"/>
<circle fill="none" cx="0" cy="70.7" r="0.1"/>
<circle fill="none" cx="0" cy="47.2" r="0.1"/>
<circle fill="none" cx="0" cy="23.8" r="0.1"/>
<circle fill="none" cx="23.8" cy="0" r="0.1"/>
</g></g><rect stroke="none" stroke-width="0" fill="#FFFFFF" x="0" y="0" width="0" height="0" transform="translate(94.4,47.1)"/><path stroke="#000000" fill="none" d=""/><text font-family="OpenSansCondensedLight" font-size="14pt" fill="black" transform="translate(94.4,47.1)"/><rect stroke-width="0" fill="none" width="86.2" height="85.9" transform="translate(4.1,4.3)"/><text font-family="OpenSansCondensedLight" font-size="14pt" fill="black" transform="translate(4.1,4.3)" text-anchor="middle"><tspan x="43.1" y="28.2">INVITATION</tspan><tspan x="43.1" y="49.2">SERVICE</tspan><tspan x="43.1" y="70.2">108</tspan></text><path stroke="#000000" fill="none" transform="translate(4.1,4.3)" d="M 29.1 72 57.1 72"/></g><g transform="translate(416,103)"><g><g>
<path d="M94.5,0H0v94.5h94.5V0L94.5,0z" stroke="#000000" stroke-dasharray="none" fill="#FFFFFF"/>
<rect x="4.1" y="4.3" width="86.2" height="85.9" fill="none"/>
<circle fill="none" cx="47.2" cy="0" r="0.1"/>
<circle fill="none" cx="70.7" cy="0" r="0.1"/>
<circle fill="none" cx="94.5" cy="23.8" r="0.1"/>
<circle fill="none" cx="94.5" cy="47.2" r="0.1"/>
<circle fill="none" cx="94.5" cy="70.7" r="0.1"/>
<circle fill="none" cx="70.7" cy="94.5" r="0.1"/>
<circle fill="none" cx="47.2" cy="94.5" r="0.1"/>
<circle fill="none" cx="23.8" cy="94.5" r="0.1"/>
<circle fill="none" cx="0" cy="70.7" r="0.1"/>
<circle fill="none" cx="0" cy="47.2" r="0.1"/>
<circle fill="none" cx="0" cy="23.8" r="0.1"/>
<circle fill="none" cx="23.8" cy="0" r="0.1"/>
</g></g><rect stroke="none" stroke-width="0" fill="#FFFFFF" x="0" y="0" width="0" height="0" transform="translate(94.4,47.1)"/><path stroke="#000000" fill="none" d=""/><text font-family="OpenSansCondensedLight" font-size="14pt" fill="black" transform="translate(94.4,47.1)"/><rect stroke-width="0" fill="none" width="86.2" height="85.9" transform="translate(4.1,4.3)"/><text font-family="OpenSansCondensedLight" font-size="14pt" fill="black" transform="translate(4.1,4.3)" text-anchor="middle"><tspan x="43.1" y="28.2">MATCHMAKER</tspan><tspan x="43.1" y="49.2">SERVICE</tspan><tspan x="43.1" y="70.2">106</tspan></text><path stroke="#000000" fill="none" transform="translate(4.1,4.3)" d="M 29.1 72 57.1 72"/></g><g transform="translate(262,262)"><g><g>
<path d="M142.6,0c-30.9,0,-57,10.9,-66.4,26.4C33.5,29.2,0,49.5,0,74.5c0,26.7,38.4,48.4,85.5,48.4c2.4,0,5,0,7.4,-0.3c8.3,15.8,33.6,27.4,64.7,27.4c25.4,0,47.8,-8.1,58.8,-20c11.8,7,28.5,11.3,47,11.3c29,0,53.9,-10.5,62.7,-25.3c0.6,0,0.6,0,1.3,0c39,0,70.6,-17.9,70.6,-40s-31.6,-40.1,-70.8,-40.1c-7.5,0,-14.3,0.7,-20.4,1.8c-6.3,-15.1,-30.3,-26.4,-58.8,-26.4c-16.7,0,-31.6,3.8,-42.8,10.2C193.4,8.7,169.9,0,142.6,0L142.6,0z" stroke="#000000" stroke-dasharray="none" fill="#FFFFFF"/>
<rect x="36.1" y="46.7" width="319.3" height="56.9" fill="none"/>
<circle fill="none" cx="205.2" cy="21.4" r="0.1"/>
<circle fill="none" cx="261.4" cy="12.1" r="0.1"/>
<circle fill="none" cx="306.9" cy="37.5" r="0.1"/>
<circle fill="none" cx="398" cy="74.6" r="0.1"/>
<circle fill="none" cx="326.2" cy="116" r="0.1"/>
<circle fill="none" cx="268.4" cy="141.1" r="0.1"/>
<circle fill="none" cx="216.4" cy="130" r="0.1"/>
<circle fill="none" cx="155.5" cy="150" r="0.1"/>
<circle fill="none" cx="0" cy="74.5" r="0.1"/>
<circle fill="none" cx="92.8" cy="122.6" r="0.1"/>
<circle fill="none" cx="76.3" cy="26.4" r="0.1"/>
<circle fill="none" cx="142.5" cy="0" r="0.1"/>
</g></g><rect stroke="none" stroke-width="0" fill="#FFFFFF" x="0" y="0" width="0" height="0" transform="translate(397.9,74.5)"/><path stroke="#000000" fill="none" d=""/><text font-family="OpenSansCondensedLight" font-size="14pt" fill="black" transform="translate(397.9,74.5)"/><rect stroke-width="0" fill="none" width="319.3" height="56.9" transform="translate(36.1,46.7)"/><text font-family="OpenSansCondensedLight" font-size="14pt" fill="black" transform="translate(36.1,46.7)" text-anchor="middle"><tspan x="159.7" y="34.7">NETWORK 110</tspan></text><path stroke="#000000" fill="none" transform="translate(36.1,46.7)" d="M 195 37 222.3 37"/></g><g><path stroke="black" stroke-dasharray="none" d="M 337 280 333 205" fill="none"/><path fill="black" stroke="black" d="M 8 0 L 0 4 L 8 8 z" transform="translate(334,288.3) scale(1,1) rotate(-93.8)"/><path fill="black" stroke="black" d="M 8 0 L 0 4 L 8 8 z" transform="translate(336,196.7) scale(1,1) rotate(86.2)"/><g><g label-idx="0" cursor="move" transform="translate(335, 242.5)"><rect fill="white" rx="3" ry="3" x="0" y="0" width="0" height="0"/><text text-anchor="middle" font-size="14pt" font-family="OpenSansCondensedLight" y="0.8em" display="none" xml:space="preserve" transform="translate(0,0)"/></g></g></g><g><path stroke="black" stroke-dasharray="none" d="M 463 268 463 205" fill="none"/><path fill="black" stroke="black" d="M 8 0 L 0 4 L 8 8 z" transform="translate(459,276) scale(1,1) rotate(-90)"/><path fill="black" stroke="black" d="M 8 0 L 0 4 L 8 8 z" transform="translate(467,197) scale(1,1) rotate(-270)"/><g><g label-idx="0" cursor="move" transform="translate(463, 236.5)"><rect fill="white" rx="3" ry="3" x="0" y="0" width="0" height="0"/><text text-anchor="middle" font-size="14pt" font-family="OpenSansCondensedLight" y="0.8em" display="none" xml:space="preserve" transform="translate(0,0)"/></g></g></g><g><path stroke="black" stroke-dasharray="none" d="M 529 268 592 203" fill="none"/><path fill="black" stroke="black" d="M 8 0 L 0 4 L 8 8 z" transform="translate(520.1,271.2) scale(1,1) rotate(-45.8)"/><path fill="black" stroke="black" d="M 8 0 L 0 4 L 8 8 z" transform="translate(600.9,199.8) scale(1,1) rotate(-225.8)"/><g><g label-idx="0" cursor="move" transform="translate(560.5, 235.5)"><rect fill="white" rx="3" ry="3" x="0" y="0" width="0" height="0"/><text text-anchor="middle" font-size="14pt" font-family="OpenSansCondensedLight" y="0.8em" display="none" xml:space="preserve" transform="translate(0,0)"/></g></g></g><g transform="translate(126,419)"><g><g>
<g stroke="#000000" stroke-dasharray="none" fill="#FFFFFF">
    <path d="M11,0h41.7c5.9,0,11,4.7,11,10.9v110.8c0,5.9,-4.8,10.9,-11,10.9H11C5.1,132.5,0,127.8,0,121.7V10.9C0,4.7,4.8,0,11,0z"/>
    <path d="M23.4,8.6c0.6,0,1.1,0.3,1.1,1.1c0,0.5,-0.6,1.1,-1.1,1.1c-0.9,0,-1.4,-0.5,-1.4,-1.1C22,8.9,22.5,8.6,23.4,8.6"/>
    <path d="M40.3,8.6c0.6,0,1.1,0.5,1.1,1.1c0,0.5,-0.6,1.1,-1.1,1.1h-12.1c-0.6,0,-1.1,-0.5,-1.1,-1.1s0.6,-1.1,1.1,-1.1L40.3,8.6"/>
    <path d="M31.8,117.7c2.8,0,5.1,2.2,5.1,5s-2.2,5,-5.1,5s-5.1,-2.2,-5.1,-5C26.7,120,29,117.7,31.8,117.7z"/>
    <path d="M4.2,113V18.4h54.9v94.6H4.2L4.2,113z"/>
</g>
<rect x="7.8" y="26" width="48.1" height="80.2" fill="none"/>
<circle fill="none" cx="31.8" cy="0" r="0.1"/>
<circle fill="none" cx="47.4" cy="0" r="0.1"/>
<circle fill="none" cx="63.7" cy="33.4" r="0.1"/>
<circle fill="none" cx="63.7" cy="66.3" r="0.1"/>
<circle fill="none" cx="63.7" cy="99.1" r="0.1"/>
<circle fill="none" cx="47.4" cy="132.5" r="0.1"/>
<circle fill="none" cx="31.8" cy="132.5" r="0.1"/>
<circle fill="none" cx="16.2" cy="132.5" r="0.1"/>
<circle fill="none" cx="0" cy="99.1" r="0.1"/>
<circle fill="none" cx="0" cy="66.3" r="0.1"/>
<circle fill="none" cx="0" cy="33.4" r="0.1"/>
<circle fill="none" cx="16.2" cy="0" r="0.1"/>
</g></g><rect stroke="none" stroke-width="0" fill="#FFFFFF" x="0" y="0" width="0" height="0" transform="translate(63.6,66.2)"/><path stroke="#000000" fill="none" d=""/><text font-family="OpenSansCondensedLight" font-size="14pt" fill="black" transform="translate(63.6,66.2)"/><rect stroke-width="0" fill="none" width="48.1" height="80.2" transform="translate(7.8,26)"/><text font-family="OpenSansCondensedLight" font-size="14pt" fill="black" transform="translate(7.8,26)" text-anchor="middle"><tspan x="24.1" y="14.9">MOBILE</tspan><tspan x="24.1" y="35.9">DEVICE</tspan><tspan x="24.1" y="56.9">A</tspan><tspan x="24.1" y="77.9">112</tspan></text><path stroke="#000000" fill="none" transform="translate(7.8,26)" d="M 10.4 80 37.7 80"/></g><g transform="translate(710,443)"><g><g>
<g stroke="#000000" stroke-dasharray="none" fill="#FFFFFF">
    <path d="M11,0h41.9c5.9,0,11,4.8,11,10.9v111.2c0,5.9,-4.8,10.9,-11,10.9H11C5.1,133.1,0,128.3,0,122.2V10.9C0,4.8,4.8,0,11,0z"/>
    <path d="M23.5,8.7c0.6,0,1.1,0.3,1.1,1.1c0,0.5,-0.6,1.1,-1.1,1.1c-0.9,0,-1.4,-0.5,-1.4,-1.1C22.1,9,22.6,8.7,23.5,8.7"/>
    <path d="M40.4,8.7c0.6,0,1.1,0.5,1.1,1.1c0,0.5,-0.6,1.1,-1.1,1.1h-12.2c-0.6,0,-1.1,-0.5,-1.1,-1.1s0.6,-1.1,1.1,-1.1L40.4,8.7"/>
    <path d="M31.9,118.2c2.8,0,5.1,2.2,5.1,5s-2.2,5,-5.1,5s-5.1,-2.2,-5.1,-5C26.9,120.5,29.1,118.2,31.9,118.2z"/>
    <path d="M4.2,113.5V18.5h55.1v95H4.2L4.2,113.5z"/>
</g>
<rect x="7.8" y="26.1" width="48.3" height="80.5" fill="none"/>
<circle fill="none" cx="32" cy="0" r="0.1"/>
<circle fill="none" cx="47.6" cy="0" r="0.1"/>
<circle fill="none" cx="63.9" cy="33.6" r="0.1"/>
<circle fill="none" cx="63.9" cy="66.5" r="0.1"/>
<circle fill="none" cx="63.9" cy="99.5" r="0.1"/>
<circle fill="none" cx="47.6" cy="133.1" r="0.1"/>
<circle fill="none" cx="32" cy="133.1" r="0.1"/>
<circle fill="none" cx="16.3" cy="133.1" r="0.1"/>
<circle fill="none" cx="0" cy="99.5" r="0.1"/>
<circle fill="none" cx="0" cy="66.5" r="0.1"/>
<circle fill="none" cx="0" cy="33.6" r="0.1"/>
<circle fill="none" cx="16.3" cy="0" r="0.1"/>
</g></g><rect stroke="none" stroke-width="0" fill="#FFFFFF" x="0" y="0" width="0" height="0" transform="translate(63.8,66.4)"/><path stroke="#000000" fill="none" d=""/><text font-family="OpenSansCondensedLight" font-size="14pt" fill="black" transform="translate(63.8,66.4)"/><rect stroke-width="0" fill="none" width="48.3" height="80.5" transform="translate(7.8,26.1)"/><text font-family="OpenSansCondensedLight" font-size="14pt" fill="black" transform="translate(7.8,26.1)" text-anchor="middle"><tspan x="24.2" y="15.1">MOBILE</tspan><tspan x="24.2" y="36.1">DEVICE</tspan><tspan x="24.2" y="57.1">D</tspan><tspan x="24.2" y="78.1">118</tspan></text><path stroke="#000000" fill="none" transform="translate(7.8,26.1)" d="M 10.5 80 37.8 80"/></g><g transform="translate(523,487)"><g><g>
<g stroke="#000000" stroke-dasharray="none" fill="#FFFFFF">
    <path d="M11,0h41.7c5.9,0,11,4.7,11,10.9v110.8c0,5.9,-4.8,10.9,-11,10.9H11C5.1,132.5,0,127.8,0,121.7V10.9C0,4.7,4.8,0,11,0z"/>
    <path d="M23.4,8.6c0.6,0,1.1,0.3,1.1,1.1c0,0.5,-0.6,1.1,-1.1,1.1c-0.9,0,-1.4,-0.5,-1.4,-1.1C22,8.9,22.5,8.6,23.4,8.6"/>
    <path d="M40.3,8.6c0.6,0,1.1,0.5,1.1,1.1c0,0.5,-0.6,1.1,-1.1,1.1h-12.1c-0.6,0,-1.1,-0.5,-1.1,-1.1s0.6,-1.1,1.1,-1.1L40.3,8.6"/>
    <path d="M31.8,117.7c2.8,0,5.1,2.2,5.1,5s-2.2,5,-5.1,5s-5.1,-2.2,-5.1,-5C26.7,120,29,117.7,31.8,117.7z"/>
    <path d="M4.2,113V18.4h54.9v94.6H4.2L4.2,113z"/>
</g>
<rect x="7.8" y="26" width="48.1" height="80.2" fill="none"/>
<circle fill="none" cx="31.8" cy="0" r="0.1"/>
<circle fill="none" cx="47.4" cy="0" r="0.1"/>
<circle fill="none" cx="63.7" cy="33.4" r="0.1"/>
<circle fill="none" cx="63.7" cy="66.3" r="0.1"/>
<circle fill="none" cx="63.7" cy="99.1" r="0.1"/>
<circle fill="none" cx="47.4" cy="132.5" r="0.1"/>
<circle fill="none" cx="31.8" cy="132.5" r="0.1"/>
<circle fill="none" cx="16.2" cy="132.5" r="0.1"/>
<circle fill="none" cx="0" cy="99.1" r="0.1"/>
<circle fill="none" cx="0" cy="66.3" r="0.1"/>
<circle fill="none" cx="0" cy="33.4" r="0.1"/>
<circle fill="none" cx="16.2" cy="0" r="0.1"/>
</g></g><rect stroke="none" stroke-width="0" fill="#FFFFFF" x="0" y="0" width="0" height="0" transform="translate(63.6,66.2)"/><path stroke="#000000" fill="none" d=""/><text font-family="OpenSansCondensedLight" font-size="14pt" fill="black" transform="translate(63.6,66.2)"/><rect stroke-width="0" fill="none" width="48.1" height="80.2" transform="translate(7.8,26)"/><text font-family="OpenSansCondensedLight" font-size="14pt" fill="black" transform="translate(7.8,26)" text-anchor="middle"><tspan x="24.1" y="14.9">MOBILE</tspan><tspan x="24.1" y="35.9">DEVICE</tspan><tspan x="24.1" y="56.9">C</tspan><tspan x="24.1" y="77.9">116</tspan></text><path stroke="#000000" fill="none" transform="translate(7.8,26)" d="M 10.4 80 37.7 80"/></g><g transform="translate(298,484)"><g><g>
<g stroke="#000000" stroke-dasharray="none" fill="#FFFFFF">
    <path d="M11,0h41.9c5.9,0,11,4.8,11,10.9v111.2c0,5.9,-4.8,10.9,-11,10.9H11C5.1,133.1,0,128.3,0,122.2V10.9C0,4.8,4.8,0,11,0z"/>
    <path d="M23.5,8.7c0.6,0,1.1,0.3,1.1,1.1c0,0.5,-0.6,1.1,-1.1,1.1c-0.9,0,-1.4,-0.5,-1.4,-1.1C22.1,9,22.6,8.7,23.5,8.7"/>
    <path d="M40.4,8.7c0.6,0,1.1,0.5,1.1,1.1c0,0.5,-0.6,1.1,-1.1,1.1h-12.2c-0.6,0,-1.1,-0.5,-1.1,-1.1s0.6,-1.1,1.1,-1.1L40.4,8.7"/>
    <path d="M31.9,118.2c2.8,0,5.1,2.2,5.1,5s-2.2,5,-5.1,5s-5.1,-2.2,-5.1,-5C26.9,120.5,29.1,118.2,31.9,118.2z"/>
    <path d="M4.2,113.5V18.5h55.1v95H4.2L4.2,113.5z"/>
</g>
<rect x="7.8" y="26.1" width="48.3" height="80.5" fill="none"/>
<circle fill="none" cx="32" cy="0" r="0.1"/>
<circle fill="none" cx="47.6" cy="0" r="0.1"/>
<circle fill="none" cx="63.9" cy="33.6" r="0.1"/>
<circle fill="none" cx="63.9" cy="66.5" r="0.1"/>
<circle fill="none" cx="63.9" cy="99.5" r="0.1"/>
<circle fill="none" cx="47.6" cy="133.1" r="0.1"/>
<circle fill="none" cx="32" cy="133.1" r="0.1"/>
<circle fill="none" cx="16.3" cy="133.1" r="0.1"/>
<circle fill="none" cx="0" cy="99.5" r="0.1"/>
<circle fill="none" cx="0" cy="66.5" r="0.1"/>
<circle fill="none" cx="0" cy="33.6" r="0.1"/>
<circle fill="none" cx="16.3" cy="0" r="0.1"/>
</g></g><rect stroke="none" stroke-width="0" fill="#FFFFFF" x="0" y="0" width="0" height="0" transform="translate(63.8,66.4)"/><path stroke="#000000" fill="none" d=""/><text font-family="OpenSansCondensedLight" font-size="14pt" fill="black" transform="translate(63.8,66.4)"/><rect stroke-width="0" fill="none" width="48.3" height="80.5" transform="translate(7.8,26.1)"/><text font-family="OpenSansCondensedLight" font-size="14pt" fill="black" transform="translate(7.8,26.1)" text-anchor="middle"><tspan x="24.2" y="15.1">MOBILE</tspan><tspan x="24.2" y="36.1">DEVICE</tspan><tspan x="24.2" y="57.1">B</tspan><tspan x="24.2" y="78.1">114</tspan></text><path stroke="#000000" fill="none" transform="translate(7.8,26.1)" d="M 10.5 80 37.8 80"/></g><g><path stroke="black" stroke-dasharray="none" d="M 179 414 256 341" fill="none"/><path fill="black" stroke="black" d="M 8 0 L 0 4 L 8 8 z" transform="translate(170.3,416.1) scale(1,1) rotate(-43)"/><path fill="black" stroke="black" d="M 8 0 L 0 4 L 8 8 z" transform="translate(264.7,338.9) scale(1,1) rotate(-223)"/><g><g label-idx="0" cursor="move" transform="translate(217.5, 377.5)"><rect fill="white" rx="3" ry="3" x="-108.3" y="-13.1" width="216.6" height="22"/><text text-anchor="start" font-size="14pt" font-family="OpenSansCondensedLight" y="0.8em" display="null" xml:space="preserve" transform="translate(0,-11)"><tspan x="-99" y="0.8em">NETWORK LINK A</tspan><tspan x="71" y="0.8em" text-decoration="underline">120</tspan></text></g></g></g><g><path stroke="black" stroke-dasharray="none" d="M 347 476 354 393" fill="none"/><path fill="black" stroke="black" d="M 8 0 L 0 4 L 8 8 z" transform="translate(342,483.6) scale(1,1) rotate(-84.8)"/><path fill="black" stroke="black" d="M 8 0 L 0 4 L 8 8 z" transform="translate(359,385.4) scale(1,1) rotate(-264.8)"/><g><g label-idx="0" cursor="move" transform="translate(350.5, 434.5)"><rect fill="white" rx="3" ry="3" x="-107.8" y="-13.1" width="215.6" height="22"/><text text-anchor="start" font-size="14pt" font-family="OpenSansCondensedLight" y="0.8em" display="null" xml:space="preserve" transform="translate(0,-11)"><tspan x="-98.5" y="0.8em">NETWORK LINK B</tspan><tspan x="70.5" y="0.8em" text-decoration="underline">122</tspan></text></g></g></g><g><path stroke="black" stroke-dasharray="none" d="M 538 479 531 411" fill="none"/><path fill="black" stroke="black" d="M 8 0 L 0 4 L 8 8 z" transform="translate(535,487.4) scale(1,1) rotate(-96.1)"/><path fill="black" stroke="black" d="M 8 0 L 0 4 L 8 8 z" transform="translate(534,402.6) scale(1,1) rotate(83.9)"/><g><g label-idx="0" cursor="move" transform="translate(534.5, 445)"><rect fill="white" rx="3" ry="3" x="-107.8" y="-13.1" width="215.6" height="22"/><text text-anchor="start" font-size="14pt" font-family="OpenSansCondensedLight" y="0.8em" display="null" xml:space="preserve" transform="translate(0,-11)"><tspan x="-98.5" y="0.8em">NETWORK LINK C</tspan><tspan x="70.5" y="0.8em" text-decoration="underline">124</tspan></text></g></g></g><g><path stroke="black" stroke-dasharray="none" d="M 722 436 664 344" fill="none"/><path fill="black" stroke="black" d="M 8 0 L 0 4 L 8 8 z" transform="translate(722.6,445.1) scale(1,1) rotate(-121.9)"/><path fill="black" stroke="black" d="M 8 0 L 0 4 L 8 8 z" transform="translate(663.4,334.9) scale(1,1) rotate(58.1)"/><g><g label-idx="0" cursor="move" transform="translate(693, 390)"><rect fill="white" rx="3" ry="3" x="-108.3" y="-13.1" width="216.6" height="22"/><text text-anchor="start" font-size="14pt" font-family="OpenSansCondensedLight" y="0.8em" display="null" xml:space="preserve" transform="translate(0,-11)"><tspan x="-99" y="0.8em">NETWORK LINK D</tspan><tspan x="71" y="0.8em" text-decoration="underline">126</tspan></text></g></g></g></g><defs/></svg>