<svg xmlns="http://www.w3.org/2000/svg" xmlns:xlink="http://www.w3.org/1999/xlink" version="1.1" width="888.1" height="531.1" viewBox="58.9 33.9 888.1 531.1"><g><g transform="translate(295,174)"><g><g>
<path d="M104.7,0c-22.7,0,-41.8,13.9,-48.7,33.4C24.6,37,0,62.7,0,94.3c0,33.8,28.2,61.4,62.7,61.4c1.8,0,3.6,0,5.4,-0.4c6.1,20.1,24.7,34.7,47.5,34.7c18.6,0,35.1,-10.3,43.2,-25.3c8.6,8.8,20.9,14.3,34.5,14.3c21.3,0,39.5,-13.3,46,-32.1c0.4,0,0.4,0,0.9,0c28.6,0,51.8,-22.7,51.8,-50.7s-23.2,-50.8,-51.9,-50.8c-5.5,0,-10.5,0.9,-15,2.2c-4.6,-19.1,-22.3,-33.4,-43.2,-33.4c-12.3,0,-23.2,4.9,-31.4,12.9C141.9,11.1,124.6,0,104.7,0L104.7,0z" stroke="#000000" stroke-dasharray="none" fill="#FFFFFF"/>
<rect x="26.5" y="59.1" width="234.3" height="72.1" fill="none"/>
<circle fill="none" cx="150.5" cy="27" r="0.1"/>
<circle fill="none" cx="191.8" cy="15.3" r="0.1"/>
<circle fill="none" cx="225.2" cy="47.5" r="0.1"/>
<circle fill="none" cx="292" cy="94.5" r="0.1"/>
<circle fill="none" cx="239.3" cy="146.9" r="0.1"/>
<circle fill="none" cx="196.9" cy="178.8" r="0.1"/>
<circle fill="none" cx="158.7" cy="164.7" r="0.1"/>
<circle fill="none" cx="114.1" cy="190" r="0.1"/>
<circle fill="none" cx="0" cy="94.3" r="0.1"/>
<circle fill="none" cx="68.1" cy="155.3" r="0.1"/>
<circle fill="none" cx="56" cy="33.4" r="0.1"/>
<circle fill="none" cx="104.5" cy="0" r="0.1"/>
</g></g><rect stroke="none" stroke-width="0" fill="#FFFFFF" x="0" y="0" width="0" height="0" transform="translate(291.9,94.4)"/><path stroke="#000000" fill="none" d=""/><text font-family="OpenSansCondensedLight" font-size="14pt" fill="black" transform="translate(291.9,94.4)"/><rect stroke-width="0" fill="none" width="234.3" height="72.1" transform="translate(26.5,59.1)"/><text font-family="OpenSansCondensedLight" font-size="14pt" fill="black" transform="translate(26.5,59.1)" text-anchor="middle"><tspan x="117.1" y="42.3">NETWORK 110</tspan></text><path stroke="#000000" fill="none" transform="translate(26.5,59.1)" d="M 152.5 44 179.8 44"/></g><g transform="translate(395,469)"><g><g>
<path d="M94,0H0v62h94V0L94,0z" stroke="#000000" stroke-dasharray="none" fill="#FFFFFF"/>
<rect x="4.1" y="2.8" width="85.8" height="56.3" fill="none"/>
<circle fill="none" cx="47" cy="0" r="0.1"/>
<circle fill="none" cx="70.3" cy="0" r="0.1"/>
<circle fill="none" cx="94" cy="15.6" r="0.1"/>
<circle fill="none" cx="94" cy="31" r="0.1"/>
<circle fill="none" cx="94" cy="46.4" r="0.1"/>
<circle fill="none" cx="70.3" cy="62" r="0.1"/>
<circle fill="none" cx="47" cy="62" r="0.1"/>
<circle fill="none" cx="23.7" cy="62" r="0.1"/>
<circle fill="none" cx="0" cy="46.4" r="0.1"/>
<circle fill="none" cx="0" cy="31" r="0.1"/>
<circle fill="none" cx="0" cy="15.6" r="0.1"/>
<circle fill="none" cx="23.7" cy="0" r="0.1"/>
</g></g><rect stroke="none" stroke-width="0" fill="#FFFFFF" x="0" y="0" width="0" height="0" transform="translate(93.9,30.9)"/><path stroke="#000000" fill="none" d=""/><text font-family="OpenSansCondensedLight" font-size="14pt" fill="black" transform="translate(93.9,30.9)"/><rect stroke-width="0" fill="none" width="85.8" height="56.3" transform="translate(4.1,2.8)"/><text font-family="OpenSansCondensedLight" font-size="14pt" fill="black" transform="translate(4.1,2.8)" text-anchor="middle"><tspan x="42.9" y="34.5">NAT 202</tspan></text><path stroke="#000000" fill="none" transform="translate(4.1,2.8)" d="M 49.4 37 77.4 37"/></g><g transform="translate(395,34)"><g><g>
<path d="M94,0H0v62h94V0L94,0z" stroke="#000000" stroke-dasharray="none" fill="#FFFFFF"/>
<rect x="4.1" y="2.8" width="85.8" height="56.3" fill="none"/>
<circle fill="none" cx="47" cy="0" r="0.1"/>
<circle fill="none" cx="70.3" cy="0" r="0.1"/>
<circle fill="none" cx="94" cy="15.6" r="0.1"/>
<circle fill="none" cx="94" cy="31" r="0.1"/>
<circle fill="none" cx="94" cy="46.4" r="0.1"/>
<circle fill="none" cx="70.3" cy="62" r="0.1"/>
<circle fill="none" cx="47" cy="62" r="0.1"/>
<circle fill="none" cx="23.7" cy="62" r="0.1"/>
<circle fill="none" cx="0" cy="46.4" r="0.1"/>
<circle fill="none" cx="0" cy="31" r="0.1"/>
<circle fill="none" cx="0" cy="15.6" r="0.1"/>
<circle fill="none" cx="23.7" cy="0" r="0.1"/>
</g></g><rect stroke="none" stroke-width="0" fill="#FFFFFF" x="0" y="0" width="0" height="0" transform="translate(93.9,30.9)"/><path stroke="#000000" fill="none" d=""/><text font-family="OpenSansCondensedLight" font-size="14pt" fill="black" transform="translate(93.9,30.9)"/><rect stroke-width="0" fill="none" width="85.8" height="56.3" transform="translate(4.1,2.8)"/><text font-family="OpenSansCondensedLight" font-size="14pt" fill="black" transform="translate(4.1,2.8)" text-anchor="middle"><tspan x="42.9" y="34.5">NAT 204</tspan></text><path stroke="#000000" fill="none" transform="translate(4.1,2.8)" d="M 49.4 37 77.4 37"/></g><g transform="translate(59,392)"><g><g>
<g stroke="#000000" stroke-dasharray="none" fill="#FFFFFF">
    <path d="M107.9,61.2H5.4C2.5,61.2,0,58.8,0,55.9V5.2C0,2.4,2.5,0,5.4,0h102.5c3,0,5.4,2.4,5.4,5.2v50.7C113.4,58.8,110.9,61.2,107.9,61.2z"/>
</g>
<rect x="5" y="2.1" width="104" height="55.6" fill="none"/>
<circle cx="57" cy="0.1" r="0.1"/>
<circle cx="90.7" cy="0" r="0.1"/>
<circle cx="113.4" cy="7.4" r="0.1"/>
<circle cx="113.4" cy="29.9" r="0.1"/>
<circle cx="113.4" cy="49.9" r="0.1"/>
<circle cx="90.6" cy="61.2" r="0.1"/>
<circle cx="57" cy="61.1" r="0.1"/>
<circle cx="19.1" cy="61.2" r="0.1"/>
<circle cx="0" cy="50" r="0.1"/>
<circle cx="0" cy="30.6" r="0.1"/>
<circle cx="0" cy="13.1" r="0.1"/>
<circle cx="19.2" cy="0.1" r="0.1"/>
</g></g><rect stroke="none" stroke-width="0" fill="#FFFFFF" x="0" y="0" width="0" height="0" transform="translate(113.3,29.8)"/><path stroke="#000000" fill="none" d=""/><text font-family="OpenSansCondensedLight" font-size="14pt" fill="black" transform="translate(113.3,29.8)"/><rect stroke-width="0" fill="none" width="104" height="55.6" transform="translate(5,2.1)"/><text font-family="OpenSansCondensedLight" font-size="14pt" fill="black" transform="translate(5,2.1)" text-anchor="middle"><tspan x="52" y="13.1">MOBILE</tspan><tspan x="52" y="34.1">DEVICE A</tspan><tspan x="52" y="55.1">112</tspan></text><path stroke="#000000" fill="none" transform="translate(5,2.1)" d="M 38.3 57 65.6 57"/></g><g transform="translate(167,236)"><g><g>
<path d="M94,0H0v62h94V0L94,0z" stroke="#000000" stroke-dasharray="none" fill="#FFFFFF"/>
<rect x="4.1" y="2.8" width="85.8" height="56.3" fill="none"/>
<circle fill="none" cx="47" cy="0" r="0.1"/>
<circle fill="none" cx="70.3" cy="0" r="0.1"/>
<circle fill="none" cx="94" cy="15.6" r="0.1"/>
<circle fill="none" cx="94" cy="31" r="0.1"/>
<circle fill="none" cx="94" cy="46.4" r="0.1"/>
<circle fill="none" cx="70.3" cy="62" r="0.1"/>
<circle fill="none" cx="47" cy="62" r="0.1"/>
<circle fill="none" cx="23.7" cy="62" r="0.1"/>
<circle fill="none" cx="0" cy="46.4" r="0.1"/>
<circle fill="none" cx="0" cy="31" r="0.1"/>
<circle fill="none" cx="0" cy="15.6" r="0.1"/>
<circle fill="none" cx="23.7" cy="0" r="0.1"/>
</g></g><rect stroke="none" stroke-width="0" fill="#FFFFFF" x="0" y="0" width="0" height="0" transform="translate(93.9,30.9)"/><path stroke="#000000" fill="none" d=""/><text font-family="OpenSansCondensedLight" font-size="14pt" fill="black" transform="translate(93.9,30.9)"/><rect stroke-width="0" fill="none" width="85.8" height="56.3" transform="translate(4.1,2.8)"/><text font-family="OpenSansCondensedLight" font-size="14pt" fill="black" transform="translate(4.1,2.8)" text-anchor="middle"><tspan x="42.9" y="34.5">NAT 206</tspan></text><path stroke="#000000" fill="none" transform="translate(4.1,2.8)" d="M 49.4 37 77.4 37"/></g><g><path stroke="black" stroke-dasharray="none" d="M 130 461 C 175.1 477.3 220.2 493.5 263 500 C 305.8 506.5 346.4 503.3 387 500" fill="none"/><path fill="black" stroke="black" d="M 8 0 L 0 4 L 8 8 z" transform="translate(123.1,455.2) scale(1,1) rotate(16.2)"/><path fill="black" stroke="black" d="M 8 0 L 0 4 L 8 8 z" transform="translate(395,504) scale(1,1) rotate(-180)"/><g><g label-idx="0" cursor="move" transform="translate(255.8, 498.8)"><rect fill="white" rx="3" ry="3" x="-23.3" y="-13.1" width="46.6" height="22"/><text text-anchor="start" font-size="14pt" font-family="OpenSansCondensedLight" y="0.8em" display="null" xml:space="preserve" transform="translate(0,-11)"><tspan x="-14" y="0.8em" text-decoration="underline">208</tspan></text></g></g></g><g transform="translate(624,237)"><g><g>
<path d="M94,0H0v62h94V0L94,0z" stroke="#000000" stroke-dasharray="none" fill="#FFFFFF"/>
<rect x="4.1" y="2.8" width="85.8" height="56.3" fill="none"/>
<circle fill="none" cx="47" cy="0" r="0.1"/>
<circle fill="none" cx="70.3" cy="0" r="0.1"/>
<circle fill="none" cx="94" cy="15.6" r="0.1"/>
<circle fill="none" cx="94" cy="31" r="0.1"/>
<circle fill="none" cx="94" cy="46.4" r="0.1"/>
<circle fill="none" cx="70.3" cy="62" r="0.1"/>
<circle fill="none" cx="47" cy="62" r="0.1"/>
<circle fill="none" cx="23.7" cy="62" r="0.1"/>
<circle fill="none" cx="0" cy="46.4" r="0.1"/>
<circle fill="none" cx="0" cy="31" r="0.1"/>
<circle fill="none" cx="0" cy="15.6" r="0.1"/>
<circle fill="none" cx="23.7" cy="0" r="0.1"/>
</g></g><rect stroke="none" stroke-width="0" fill="#FFFFFF" x="0" y="0" width="0" height="0" transform="translate(93.9,30.9)"/><path stroke="#000000" fill="none" d=""/><text font-family="OpenSansCondensedLight" font-size="14pt" fill="black" transform="translate(93.9,30.9)"/><rect stroke-width="0" fill="none" width="85.8" height="56.3" transform="translate(4.1,2.8)"/><text font-family="OpenSansCondensedLight" font-size="14pt" fill="black" transform="translate(4.1,2.8)" text-anchor="middle"><tspan x="42.9" y="34.5">NAT 212</tspan></text><path stroke="#000000" fill="none" transform="translate(4.1,2.8)" d="M 49.4 37 77.4 37"/></g><g transform="translate(775,132)"><g><g>
<g stroke="#000000" stroke-dasharray="none" fill="#FFFFFF">
    <path d="M107.6,59.9H5.4C2.4,59.9,0,57.6,0,54.8V5.1C0,2.3,2.4,0,5.4,0h102.1c3,0,5.4,2.3,5.4,5.1v49.7C113,57.7,110.6,59.9,107.6,59.9z"/>
</g>
<rect x="5" y="2" width="103.6" height="54.5" fill="none"/>
<circle cx="56.8" cy="0.1" r="0.1"/>
<circle cx="90.4" cy="0" r="0.1"/>
<circle cx="113" cy="7.3" r="0.1"/>
<circle cx="113" cy="29.3" r="0.1"/>
<circle cx="113" cy="48.9" r="0.1"/>
<circle cx="90.3" cy="60" r="0.1"/>
<circle cx="56.8" cy="59.9" r="0.1"/>
<circle cx="19.1" cy="59.9" r="0.1"/>
<circle cx="0" cy="49" r="0.1"/>
<circle cx="0" cy="30" r="0.1"/>
<circle cx="0" cy="12.8" r="0.1"/>
<circle cx="19.1" cy="0.1" r="0.1"/>
</g></g><rect stroke="none" stroke-width="0" fill="#FFFFFF" x="0" y="0" width="0" height="0" transform="translate(112.9,29.2)"/><path stroke="#000000" fill="none" d=""/><text font-family="OpenSansCondensedLight" font-size="14pt" fill="black" transform="translate(112.9,29.2)"/><rect stroke-width="0" fill="none" width="103.6" height="54.5" transform="translate(5,2)"/><text font-family="OpenSansCondensedLight" font-size="14pt" fill="black" transform="translate(5,2)" text-anchor="middle"><tspan x="51.8" y="12.5">MOBILE</tspan><tspan x="51.8" y="33.5">DEVICE C</tspan><tspan x="51.8" y="54.5">116</tspan></text><path stroke="#000000" fill="none" transform="translate(5,2)" d="M 38.1 57 65.5 57"/></g><g><path stroke="black" stroke-dasharray="none" d="M 160 286 C 132.3 295.8 104.5 305.7 91 322 C 77.5 338.3 78.3 361.2 79 384" fill="none"/><path fill="black" stroke="black" d="M 8 0 L 0 4 L 8 8 z" transform="translate(168.9,285.5) scale(1,1) rotate(-207.8)"/><path fill="black" stroke="black" d="M 8 0 L 0 4 L 8 8 z" transform="translate(74.1,391.3) scale(1,1) rotate(-79.5)"/><g><g label-idx="0" cursor="move" transform="translate(95.9, 316.9)"><rect fill="white" rx="3" ry="3" x="-23.3" y="-13.1" width="46.6" height="22"/><text text-anchor="start" font-size="14pt" font-family="OpenSansCondensedLight" y="0.8em" display="null" xml:space="preserve" transform="translate(0,-11)"><tspan x="-14" y="0.8em" text-decoration="underline">210</tspan></text></g></g></g><g><path stroke="black" stroke-dasharray="none" d="M 269 268 C 278 268 278 268 287 268" fill="none"/><path fill="black" stroke="black" d="M 8 0 L 0 4 L 8 8 z" transform="translate(261,264) scale(1,1) rotate(0)"/><path fill="black" stroke="black" d="M 8 0 L 0 4 L 8 8 z" transform="translate(295,272) scale(1,1) rotate(-180)"/><g><g label-idx="0" cursor="move" transform="translate(278, 268)"><rect fill="white" rx="3" ry="3" x="0" y="0" width="0" height="0"/><text text-anchor="middle" font-size="14pt" font-family="OpenSansCondensedLight" y="0.8em" display="none" xml:space="preserve" transform="translate(0,0)"/></g></g></g><g><path stroke="black" stroke-dasharray="none" d="M 444 461 444 362" fill="none"/><path fill="black" stroke="black" d="M 8 0 L 0 4 L 8 8 z" transform="translate(440,469) scale(1,1) rotate(-90)"/><path fill="black" stroke="black" d="M 8 0 L 0 4 L 8 8 z" transform="translate(448,354) scale(1,1) rotate(-270)"/><g><g label-idx="0" cursor="move" transform="translate(444, 411.5)"><rect fill="white" rx="3" ry="3" x="0" y="0" width="0" height="0"/><text text-anchor="middle" font-size="14pt" font-family="OpenSansCondensedLight" y="0.8em" display="none" xml:space="preserve" transform="translate(0,0)"/></g></g></g><g><path stroke="black" stroke-dasharray="none" d="M 442 182 442 104" fill="none"/><path fill="black" stroke="black" d="M 8 0 L 0 4 L 8 8 z" transform="translate(438,190) scale(1,1) rotate(-90)"/><path fill="black" stroke="black" d="M 8 0 L 0 4 L 8 8 z" transform="translate(446,96) scale(1,1) rotate(-270)"/><g><g label-idx="0" cursor="move" transform="translate(442, 143)"><rect fill="white" rx="3" ry="3" x="0" y="0" width="0" height="0"/><text text-anchor="middle" font-size="14pt" font-family="OpenSansCondensedLight" y="0.8em" display="none" xml:space="preserve" transform="translate(0,0)"/></g></g></g><g><path stroke="black" stroke-dasharray="none" d="M 616 268 595 268" fill="none"/><path fill="black" stroke="black" d="M 8 0 L 0 4 L 8 8 z" transform="translate(624,272) scale(1,1) rotate(-180)"/><path fill="black" stroke="black" d="M 8 0 L 0 4 L 8 8 z" transform="translate(587,264) scale(1,1) rotate(0)"/><g><g label-idx="0" cursor="move" transform="translate(605.5, 268)"><rect fill="white" rx="3" ry="3" x="0" y="0" width="0" height="0"/><text text-anchor="middle" font-size="14pt" font-family="OpenSansCondensedLight" y="0.8em" display="none" xml:space="preserve" transform="translate(0,0)"/></g></g></g><g><path stroke="black" stroke-dasharray="none" d="M 726 251 C 750.7 247.7 775.3 244.3 790 236 C 804.7 227.7 809.3 214.3 814 201" fill="none"/><path fill="black" stroke="black" d="M 8 0 L 0 4 L 8 8 z" transform="translate(717.1,249.1) scale(1,1) rotate(-13.3)"/><path fill="black" stroke="black" d="M 8 0 L 0 4 L 8 8 z" transform="translate(821.3,196.2) scale(1,1) rotate(-236.3)"/><g><g label-idx="0" cursor="move" transform="translate(779.7, 240.6)"><rect fill="white" rx="3" ry="3" x="-23.3" y="-13.1" width="46.6" height="22"/><text text-anchor="start" font-size="14pt" font-family="OpenSansCondensedLight" y="0.8em" display="null" xml:space="preserve" transform="translate(0,-11)"><tspan x="-14" y="0.8em" text-decoration="underline">214</tspan></text></g></g></g><g><path stroke="black" stroke-dasharray="none" d="M 815 125 C 770 99.2 725 73.3 672 63 C 619 52.7 558 57.8 497 63" fill="none"/><path fill="black" stroke="black" d="M 8 0 L 0 4 L 8 8 z" transform="translate(820.4,131.7) scale(1,1) rotate(-156.6)"/><path fill="black" stroke="black" d="M 8 0 L 0 4 L 8 8 z" transform="translate(489,59) scale(1,1) rotate(0)"/><g><g label-idx="0" cursor="move" transform="translate(662.7, 61.4)"><rect fill="white" rx="3" ry="3" x="-23.3" y="-13.1" width="46.6" height="22"/><text text-anchor="start" font-size="14pt" font-family="OpenSansCondensedLight" y="0.8em" display="null" xml:space="preserve" transform="translate(0,-11)"><tspan x="-14" y="0.8em" text-decoration="underline">216</tspan></text></g></g></g></g><defs/></svg>