<svg xmlns="http://www.w3.org/2000/svg" xmlns:xlink="http://www.w3.org/1999/xlink" version="1.1" width="893.1" height="410.1" viewBox="15.9 82.9 893.1 410.1"><g><g transform="translate(115,92)"><g><g>
<g stroke="#000000" stroke-dasharray="none" fill="#FFFFFF">
    <path d="M111.4,85.9H5.6C2.5,85.9,0,82.6,0,78.6V7.3C0,3.3,2.5,0,5.6,0h105.7c3.1,0,5.6,3.3,5.6,7.3v71.2C117,82.6,114.5,85.9,111.4,85.9z"/>
</g>
<rect x="5.2" y="2.9" width="107.3" height="78.1" fill="none"/>
<circle cx="58.8" cy="0.1" r="0.1"/>
<circle cx="93.6" cy="0" r="0.1"/>
<circle cx="117" cy="10.4" r="0.1"/>
<circle cx="117" cy="42" r="0.1"/>
<circle cx="117" cy="70.2" r="0.1"/>
<circle cx="93.5" cy="86" r="0.1"/>
<circle cx="58.8" cy="85.8" r="0.1"/>
<circle cx="19.7" cy="85.9" r="0.1"/>
<circle cx="0" cy="70.2" r="0.1"/>
<circle cx="0" cy="42.9" r="0.1"/>
<circle cx="0" cy="18.4" r="0.1"/>
<circle cx="19.8" cy="0.1" r="0.1"/>
</g></g><rect stroke="none" stroke-width="0" fill="#FFFFFF" x="0" y="0" width="0" height="0" transform="translate(116.9,41.9)"/><path stroke="#000000" fill="none" d=""/><text font-family="OpenSansCondensedLight" font-size="14pt" fill="black" transform="translate(116.9,41.9)"/><rect stroke-width="0" fill="none" width="107.3" height="78.1" transform="translate(5.2,2.9)"/><text font-family="OpenSansCondensedLight" font-size="14pt" fill="black" transform="translate(5.2,2.9)" text-anchor="middle"><tspan x="53.6" y="24.3">MOBILE</tspan><tspan x="53.6" y="45.3">DEVICE B</tspan><tspan x="53.6" y="66.3">114</tspan></text><path stroke="#000000" fill="none" transform="translate(5.2,2.9)" d="M 40 68 67.3 68"/></g><g transform="translate(210,230)"><g><g>
<g stroke="#000000" stroke-dasharray="none" fill="#FFFFFF">
    <path d="M111.4,85.9H5.6C2.5,85.9,0,82.6,0,78.6V7.3C0,3.3,2.5,0,5.6,0h105.7c3.1,0,5.6,3.3,5.6,7.3v71.2C117,82.6,114.5,85.9,111.4,85.9z"/>
</g>
<rect x="5.2" y="2.9" width="107.3" height="78.1" fill="none"/>
<circle cx="58.8" cy="0.1" r="0.1"/>
<circle cx="93.6" cy="0" r="0.1"/>
<circle cx="117" cy="10.4" r="0.1"/>
<circle cx="117" cy="42" r="0.1"/>
<circle cx="117" cy="70.2" r="0.1"/>
<circle cx="93.5" cy="86" r="0.1"/>
<circle cx="58.8" cy="85.8" r="0.1"/>
<circle cx="19.7" cy="85.9" r="0.1"/>
<circle cx="0" cy="70.2" r="0.1"/>
<circle cx="0" cy="42.9" r="0.1"/>
<circle cx="0" cy="18.4" r="0.1"/>
<circle cx="19.8" cy="0.1" r="0.1"/>
</g></g><rect stroke="none" stroke-width="0" fill="#FFFFFF" x="0" y="0" width="0" height="0" transform="translate(116.9,41.9)"/><path stroke="#000000" fill="none" d=""/><text font-family="OpenSansCondensedLight" font-size="14pt" fill="black" transform="translate(116.9,41.9)"/><rect stroke-width="0" fill="none" width="107.3" height="78.1" transform="translate(5.2,2.9)"/><text font-family="OpenSansCondensedLight" font-size="14pt" fill="black" transform="translate(5.2,2.9)" text-anchor="middle"><tspan x="53.6" y="24.3">MOBILE</tspan><tspan x="53.6" y="45.3">DEVICE C</tspan><tspan x="53.6" y="66.3">116</tspan></text><path stroke="#000000" fill="none" transform="translate(5.2,2.9)" d="M 40 68 67.3 68"/></g><g transform="translate(506,231)"><g><g>
<g stroke="#000000" stroke-dasharray="none" fill="#FFFFFF">
    <path d="M111.4,85.9H5.6C2.5,85.9,0,82.6,0,78.6V7.3C0,3.3,2.5,0,5.6,0h105.7c3.1,0,5.6,3.3,5.6,7.3v71.2C117,82.6,114.5,85.9,111.4,85.9z"/>
</g>
<rect x="5.2" y="2.9" width="107.3" height="78.1" fill="none"/>
<circle cx="58.8" cy="0.1" r="0.1"/>
<circle cx="93.6" cy="0" r="0.1"/>
<circle cx="117" cy="10.4" r="0.1"/>
<circle cx="117" cy="42" r="0.1"/>
<circle cx="117" cy="70.2" r="0.1"/>
<circle cx="93.5" cy="86" r="0.1"/>
<circle cx="58.8" cy="85.8" r="0.1"/>
<circle cx="19.7" cy="85.9" r="0.1"/>
<circle cx="0" cy="70.2" r="0.1"/>
<circle cx="0" cy="42.9" r="0.1"/>
<circle cx="0" cy="18.4" r="0.1"/>
<circle cx="19.8" cy="0.1" r="0.1"/>
</g></g><rect stroke="none" stroke-width="0" fill="#FFFFFF" x="0" y="0" width="0" height="0" transform="translate(116.9,41.9)"/><path stroke="#000000" fill="none" d=""/><text font-family="OpenSansCondensedLight" font-size="14pt" fill="black" transform="translate(116.9,41.9)"/><rect stroke-width="0" fill="none" width="107.3" height="78.1" transform="translate(5.2,2.9)"/><text font-family="OpenSansCondensedLight" font-size="14pt" fill="black" transform="translate(5.2,2.9)" text-anchor="middle"><tspan x="53.6" y="24.3">MOBILE</tspan><tspan x="53.6" y="45.3">DEVICE A</tspan><tspan x="53.6" y="66.3">112</tspan></text><path stroke="#000000" fill="none" transform="translate(5.2,2.9)" d="M 40 68 67.3 68"/></g><g transform="translate(16,230)"><g><g>
<g stroke="#000000" stroke-dasharray="none" fill="#FFFFFF">
    <path d="M111.4,85.9H5.6C2.5,85.9,0,82.6,0,78.6V7.3C0,3.3,2.5,0,5.6,0h105.7c3.1,0,5.6,3.3,5.6,7.3v71.2C117,82.6,114.5,85.9,111.4,85.9z"/>
</g>
<rect x="5.2" y="2.9" width="107.3" height="78.1" fill="none"/>
<circle cx="58.8" cy="0.1" r="0.1"/>
<circle cx="93.6" cy="0" r="0.1"/>
<circle cx="117" cy="10.4" r="0.1"/>
<circle cx="117" cy="42" r="0.1"/>
<circle cx="117" cy="70.2" r="0.1"/>
<circle cx="93.5" cy="86" r="0.1"/>
<circle cx="58.8" cy="85.8" r="0.1"/>
<circle cx="19.7" cy="85.9" r="0.1"/>
<circle cx="0" cy="70.2" r="0.1"/>
<circle cx="0" cy="42.9" r="0.1"/>
<circle cx="0" cy="18.4" r="0.1"/>
<circle cx="19.8" cy="0.1" r="0.1"/>
</g></g><rect stroke="none" stroke-width="0" fill="#FFFFFF" x="0" y="0" width="0" height="0" transform="translate(116.9,41.9)"/><path stroke="#000000" fill="none" d=""/><text font-family="OpenSansCondensedLight" font-size="14pt" fill="black" transform="translate(116.9,41.9)"/><rect stroke-width="0" fill="none" width="107.3" height="78.1" transform="translate(5.2,2.9)"/><text font-family="OpenSansCondensedLight" font-size="14pt" fill="black" transform="translate(5.2,2.9)" text-anchor="middle"><tspan x="53.6" y="24.3">MOBILE</tspan><tspan x="53.6" y="45.3">DEVICE A</tspan><tspan x="53.6" y="66.3">112</tspan></text><path stroke="#000000" fill="none" transform="translate(5.2,2.9)" d="M 40 68 67.3 68"/></g><g transform="translate(776,84)"><g><g>
<g stroke="#000000" stroke-dasharray="none" fill="#FFFFFF">
    <path d="M111.4,85.9H5.6C2.5,85.9,0,82.6,0,78.6V7.3C0,3.3,2.5,0,5.6,0h105.7c3.1,0,5.6,3.3,5.6,7.3v71.2C117,82.6,114.5,85.9,111.4,85.9z"/>
</g>
<rect x="5.2" y="2.9" width="107.3" height="78.1" fill="none"/>
<circle cx="58.8" cy="0.1" r="0.1"/>
<circle cx="93.6" cy="0" r="0.1"/>
<circle cx="117" cy="10.4" r="0.1"/>
<circle cx="117" cy="42" r="0.1"/>
<circle cx="117" cy="70.2" r="0.1"/>
<circle cx="93.5" cy="86" r="0.1"/>
<circle cx="58.8" cy="85.8" r="0.1"/>
<circle cx="19.7" cy="85.9" r="0.1"/>
<circle cx="0" cy="70.2" r="0.1"/>
<circle cx="0" cy="42.9" r="0.1"/>
<circle cx="0" cy="18.4" r="0.1"/>
<circle cx="19.8" cy="0.1" r="0.1"/>
</g></g><rect stroke="none" stroke-width="0" fill="#FFFFFF" x="0" y="0" width="0" height="0" transform="translate(116.9,41.9)"/><path stroke="#000000" fill="none" d=""/><text font-family="OpenSansCondensedLight" font-size="14pt" fill="black" transform="translate(116.9,41.9)"/><rect stroke-width="0" fill="none" width="107.3" height="78.1" transform="translate(5.2,2.9)"/><text font-family="OpenSansCondensedLight" font-size="14pt" fill="black" transform="translate(5.2,2.9)" text-anchor="middle"><tspan x="53.6" y="24.3">MOBILE</tspan><tspan x="53.6" y="45.3">DEVICE C</tspan><tspan x="53.6" y="66.3">116</tspan></text><path stroke="#000000" fill="none" transform="translate(5.2,2.9)" d="M 40 68 67.3 68"/></g><g transform="translate(599,83)"><g><g>
<g stroke="#000000" stroke-dasharray="none" fill="#FFFFFF">
    <path d="M111.4,85.9H5.6C2.5,85.9,0,82.6,0,78.6V7.3C0,3.3,2.5,0,5.6,0h105.7c3.1,0,5.6,3.3,5.6,7.3v71.2C117,82.6,114.5,85.9,111.4,85.9z"/>
</g>
<rect x="5.2" y="2.9" width="107.3" height="78.1" fill="none"/>
<circle cx="58.8" cy="0.1" r="0.1"/>
<circle cx="93.6" cy="0" r="0.1"/>
<circle cx="117" cy="10.4" r="0.1"/>
<circle cx="117" cy="42" r="0.1"/>
<circle cx="117" cy="70.2" r="0.1"/>
<circle cx="93.5" cy="86" r="0.1"/>
<circle cx="58.8" cy="85.8" r="0.1"/>
<circle cx="19.7" cy="85.9" r="0.1"/>
<circle cx="0" cy="70.2" r="0.1"/>
<circle cx="0" cy="42.9" r="0.1"/>
<circle cx="0" cy="18.4" r="0.1"/>
<circle cx="19.8" cy="0.1" r="0.1"/>
</g></g><rect stroke="none" stroke-width="0" fill="#FFFFFF" x="0" y="0" width="0" height="0" transform="translate(116.9,41.9)"/><path stroke="#000000" fill="none" d=""/><text font-family="OpenSansCondensedLight" font-size="14pt" fill="black" transform="translate(116.9,41.9)"/><rect stroke-width="0" fill="none" width="107.3" height="78.1" transform="translate(5.2,2.9)"/><text font-family="OpenSansCondensedLight" font-size="14pt" fill="black" transform="translate(5.2,2.9)" text-anchor="middle"><tspan x="53.6" y="24.3">MOBILE</tspan><tspan x="53.6" y="45.3">DEVICE B</tspan><tspan x="53.6" y="66.3">114</tspan></text><path stroke="#000000" fill="none" transform="translate(5.2,2.9)" d="M 40 68 67.3 68"/></g><g><path stroke="black" stroke-dasharray="none" d="M 202 272 141 272" fill="none"/><path fill="black" stroke="black" d="M 8 0 L 0 4 L 8 8 z" transform="translate(210,276) scale(1,1) rotate(-180)"/><path fill="black" stroke="black" d="M 8 0 L 0 4 L 8 8 z" transform="translate(133,268) scale(1,1) rotate(0)"/><g><g label-idx="0" cursor="move" transform="translate(171.5, 272)"><rect fill="white" rx="3" ry="3" x="0" y="0" width="0" height="0"/><text text-anchor="middle" font-size="14pt" font-family="OpenSansCondensedLight" y="0.8em" display="none" xml:space="preserve" transform="translate(0,0)"/></g></g></g><g><path stroke="black" stroke-dasharray="none" d="M 113 223 132 185" fill="none"/><path fill="black" stroke="black" d="M 8 0 L 0 4 L 8 8 z" transform="translate(106.4,228.3) scale(1,1) rotate(-64.3)"/><path fill="black" stroke="black" d="M 8 0 L 0 4 L 8 8 z" transform="translate(138.6,179.7) scale(1,1) rotate(-244.3)"/><g><g label-idx="0" cursor="move" transform="translate(122.5, 204)"><rect fill="white" rx="3" ry="3" x="0" y="0" width="0" height="0"/><text text-anchor="middle" font-size="14pt" font-family="OpenSansCondensedLight" y="0.8em" display="none" xml:space="preserve" transform="translate(0,0)"/></g></g></g><g transform="translate(353,168)"><g><g>
<g stroke="#000000" stroke-dasharray="none" fill="#FFFFFF">
    <path d="M99.2,15.5V20.7L113.4,10.3L99.2,0v5.2H14.2V0L0,10.3L14.2,20.7v-5.2H99.2z"/>
</g>
<rect x="4" y="2.2" fill="none" width="105.4" height="16.3"/>
<circle fill="none" cx="57.7" cy="5.1" r="0.1"/>
<circle fill="none" cx="85" cy="5.1" r="0.1"/>
<circle fill="none" cx="99.5" cy="0" r="0.1"/>
<circle fill="none" cx="113.3" cy="10.4" r="0.1"/>
<circle fill="none" cx="99.4" cy="20.6" r="0.1"/>
<circle fill="none" cx="86.6" cy="15.5" r="0.1"/>
<circle fill="none" cx="58.9" cy="15.5" r="0.1"/>
<circle fill="none" cx="32.2" cy="15.5" r="0.1"/>
<circle fill="none" cx="14" cy="20.8" r="0.1"/>
<circle fill="none" cx="0.3" cy="10.2" r="0.1"/>
<circle fill="none" cx="14.2" cy="0" r="0.1"/>
<circle fill="none" cx="31.8" cy="5.1" r="0.1"/>
</g></g><rect stroke="none" stroke-width="0" fill="#FFFFFF" x="0" y="0" width="0" height="0" transform="translate(113.2,10.3)"/><path stroke="#000000" fill="none" d=""/><text font-family="OpenSansCondensedLight" font-size="14pt" fill="black" transform="translate(113.2,10.3)"/><rect stroke-width="0" fill="none" width="340.2" transform="translate(-113.4,30.9)"/><text font-family="OpenSansCondensedLight" font-size="14pt" fill="black" transform="translate(-113.4,30.9)" text-anchor="middle"><tspan x="170.1" y="16.8"> </tspan></text><path stroke="#000000" fill="none" transform="translate(-113.4,30.9)" d="M 0 0"/></g><g><path stroke="black" stroke-dasharray="none" d="M 227 223 211 185" fill="none"/><path fill="black" stroke="black" d="M 8 0 L 0 4 L 8 8 z" transform="translate(226.3,231.6) scale(1,1) rotate(-112.9)"/><path fill="black" stroke="black" d="M 8 0 L 0 4 L 8 8 z" transform="translate(211.7,176.4) scale(1,1) rotate(67.1)"/><g><g label-idx="0" cursor="move" transform="translate(219, 204)"><rect fill="white" rx="3" ry="3" x="0" y="0" width="0" height="0"/><text text-anchor="middle" font-size="14pt" font-family="OpenSansCondensedLight" y="0.8em" display="none" xml:space="preserve" transform="translate(0,0)"/></g></g></g><g transform="translate(346,138)"><g><g>
<path d="M28,0H0v81h28V0L28,0z" stroke="none" stroke-dasharray="none" fill="#FFFFFF"/>
<rect x="1.2" y="3.7" width="25.6" height="73.6" fill="none"/>
<circle fill="none" cx="14" cy="0" r="0.1"/>
<circle fill="none" cx="20.9" cy="0" r="0.1"/>
<circle fill="none" cx="28" cy="20.4" r="0.1"/>
<circle fill="none" cx="28" cy="40.5" r="0.1"/>
<circle fill="none" cx="28" cy="60.6" r="0.1"/>
<circle fill="none" cx="20.9" cy="81" r="0.1"/>
<circle fill="none" cx="14" cy="81" r="0.1"/>
<circle fill="none" cx="7.1" cy="81" r="0.1"/>
<circle fill="none" cx="0" cy="60.6" r="0.1"/>
<circle fill="none" cx="0" cy="40.5" r="0.1"/>
<circle fill="none" cx="0" cy="20.4" r="0.1"/>
<circle fill="none" cx="7.1" cy="0" r="0.1"/>
</g></g><rect stroke="none" stroke-width="0" fill="#FFFFFF" x="0" y="0" width="0" height="0" transform="translate(27.9,40.4)"/><path stroke="#000000" fill="none" d=""/><text font-family="OpenSansCondensedLight" font-size="14pt" fill="black" transform="translate(27.9,40.4)"/><rect stroke-width="0" fill="none" width="25.6" height="73.6" transform="translate(1.2,3.7)"/><text font-family="OpenSansCondensedLight" font-size="14pt" fill="black" transform="translate(1.2,3.7)" text-anchor="middle"><tspan x="12.8" y="43.1"> </tspan></text><path stroke="#000000" fill="none" transform="translate(1.2,3.7)" d="M 0 0"/></g><g><path stroke="black" d="M 602 223 617 177" fill="none"/><path fill="black" stroke="black" d="M 8 0 L 0 4 L 8 8 z" transform="translate(596.2,229.8) scale(1,1) rotate(-73)"/><path fill="black" stroke="black" d="M 8 0 L 0 4 L 8 8 z" transform="translate(622.8,170.2) scale(1,1) rotate(-253)"/><g><g label-idx="0" cursor="move" transform="translate(609.5, 200)"><rect fill="white" rx="3" ry="3" x="0" y="0" width="0" height="0"/><text text-anchor="middle" font-size="14pt" font-family="OpenSansCondensedLight" y="0.8em" display="none" xml:space="preserve" transform="translate(0,0)"/></g></g></g><g><path stroke="black" d="M 724 127 768 127" fill="none"/><path fill="black" stroke="black" d="M 8 0 L 0 4 L 8 8 z" transform="translate(716,123) scale(1,1) rotate(0)"/><path fill="black" stroke="black" d="M 8 0 L 0 4 L 8 8 z" transform="translate(776,131) scale(1,1) rotate(-180)"/><g><g label-idx="0" cursor="move" transform="translate(746, 127)"><rect fill="white" rx="3" ry="3" x="0" y="0" width="0" height="0"/><text text-anchor="middle" font-size="14pt" font-family="OpenSansCondensedLight" y="0.8em" display="none" xml:space="preserve" transform="translate(0,0)"/></g></g></g><g transform="translate(52,360)"><g><g>
<path d="M239,0H0v50h239V0L239,0z" stroke="none" stroke-dasharray="none" fill="#FFFFFF"/>
<rect x="10.5" y="2.3" width="218.1" height="45.4" fill="none"/>
<circle fill="none" cx="119.5" cy="0" r="0.1"/>
<circle fill="none" cx="178.7" cy="0" r="0.1"/>
<circle fill="none" cx="239" cy="12.6" r="0.1"/>
<circle fill="none" cx="239" cy="25" r="0.1"/>
<circle fill="none" cx="239" cy="37.4" r="0.1"/>
<circle fill="none" cx="178.7" cy="50" r="0.1"/>
<circle fill="none" cx="119.5" cy="50" r="0.1"/>
<circle fill="none" cx="60.3" cy="50" r="0.1"/>
<circle fill="none" cx="0" cy="37.4" r="0.1"/>
<circle fill="none" cx="0" cy="25" r="0.1"/>
<circle fill="none" cx="0" cy="12.6" r="0.1"/>
<circle fill="none" cx="60.3" cy="0" r="0.1"/>
</g></g><rect stroke="none" stroke-width="0" fill="#FFFFFF" x="0" y="0" width="0" height="0" transform="translate(238.9,24.9)"/><path stroke="#000000" fill="none" d=""/><text font-family="OpenSansCondensedLight" font-size="14pt" fill="black" transform="translate(238.9,24.9)"/><rect stroke-width="0" fill="none" width="218.1" height="45.4" transform="translate(10.5,2.3)"/><text font-family="OpenSansCondensedLight" font-size="14pt" fill="black" transform="translate(10.5,2.3)" text-anchor="middle"><tspan x="109.1" y="18.5">PRIMARY CHANNEL A</tspan><tspan x="109.1" y="39.5">402</tspan></text><path stroke="#000000" fill="none" transform="translate(10.5,2.3)" d="M 95.1 42 123 42"/></g><g transform="translate(609,357)"><g><g>
<path d="M239,0H0v50h239V0L239,0z" stroke="none" stroke-dasharray="none" fill="#FFFFFF"/>
<rect x="10.5" y="2.3" width="218.1" height="45.4" fill="none"/>
<circle fill="none" cx="119.5" cy="0" r="0.1"/>
<circle fill="none" cx="178.7" cy="0" r="0.1"/>
<circle fill="none" cx="239" cy="12.6" r="0.1"/>
<circle fill="none" cx="239" cy="25" r="0.1"/>
<circle fill="none" cx="239" cy="37.4" r="0.1"/>
<circle fill="none" cx="178.7" cy="50" r="0.1"/>
<circle fill="none" cx="119.5" cy="50" r="0.1"/>
<circle fill="none" cx="60.3" cy="50" r="0.1"/>
<circle fill="none" cx="0" cy="37.4" r="0.1"/>
<circle fill="none" cx="0" cy="25" r="0.1"/>
<circle fill="none" cx="0" cy="12.6" r="0.1"/>
<circle fill="none" cx="60.3" cy="0" r="0.1"/>
</g></g><rect stroke="none" stroke-width="0" fill="#FFFFFF" x="0" y="0" width="0" height="0" transform="translate(238.9,24.9)"/><path stroke="#000000" fill="none" d=""/><text font-family="OpenSansCondensedLight" font-size="14pt" fill="black" transform="translate(238.9,24.9)"/><rect stroke-width="0" fill="none" width="218.1" height="45.4" transform="translate(10.5,2.3)"/><text font-family="OpenSansCondensedLight" font-size="14pt" fill="black" transform="translate(10.5,2.3)" text-anchor="middle"><tspan x="109.1" y="18.5">PRIMARY CHANNEL B</tspan><tspan x="109.1" y="39.5">404</tspan></text><path stroke="#000000" fill="none" transform="translate(10.5,2.3)" d="M 95.1 42 123 42"/></g></g><defs/></svg>