<svg xmlns="http://www.w3.org/2000/svg" xmlns:xlink="http://www.w3.org/1999/xlink" version="1.1" width="873.6" height="555.6" viewBox="70.6 72.9 873.6 555.6"><g><g transform="translate(84,73)"><g><g>
<path d="M94.5,0H0v94.5h94.5V0L94.5,0z" stroke="#000000" stroke-dasharray="none" fill="#FFFFFF"/>
<rect x="4.1" y="4.3" width="86.2" height="85.9" fill="none"/>
<circle fill="none" cx="47.2" cy="0" r="0.1"/>
<circle fill="none" cx="70.7" cy="0" r="0.1"/>
<circle fill="none" cx="94.5" cy="23.8" r="0.1"/>
<circle fill="none" cx="94.5" cy="47.2" r="0.1"/>
<circle fill="none" cx="94.5" cy="70.7" r="0.1"/>
<circle fill="none" cx="70.7" cy="94.5" r="0.1"/>
<circle fill="none" cx="47.2" cy="94.5" r="0.1"/>
<circle fill="none" cx="23.8" cy="94.5" r="0.1"/>
<circle fill="none" cx="0" cy="70.7" r="0.1"/>
<circle fill="none" cx="0" cy="47.2" r="0.1"/>
<circle fill="none" cx="0" cy="23.8" r="0.1"/>
<circle fill="none" cx="23.8" cy="0" r="0.1"/>
</g></g><rect stroke="none" stroke-width="0" fill="#FFFFFF" x="0" y="0" width="0" height="0" transform="translate(94.4,47.1)"/><path stroke="#000000" fill="none" d=""/><text font-family="OpenSansCondensedLight" font-size="14pt" fill="black" transform="translate(94.4,47.1)"/><rect stroke-width="0" fill="none" width="86.2" height="85.9" transform="translate(4.1,4.3)"/><text font-family="OpenSansCondensedLight" font-size="14pt" fill="black" transform="translate(4.1,4.3)" text-anchor="middle"><tspan x="43.1" y="17.7">CONNECTION</tspan><tspan x="43.1" y="38.7">DATA</tspan><tspan x="43.1" y="59.7">EXCHANGE</tspan><tspan x="43.1" y="80.7">104</tspan></text><path stroke="#000000" fill="none" transform="translate(4.1,4.3)" d="M 29.1 83 57.1 83"/></g><g transform="translate(394,73)"><g><g>
<path d="M94.5,0H0v94.5h94.5V0L94.5,0z" stroke="#000000" stroke-dasharray="none" fill="#FFFFFF"/>
<rect x="4.1" y="4.3" width="86.2" height="85.9" fill="none"/>
<circle fill="none" cx="47.2" cy="0" r="0.1"/>
<circle fill="none" cx="70.7" cy="0" r="0.1"/>
<circle fill="none" cx="94.5" cy="23.8" r="0.1"/>
<circle fill="none" cx="94.5" cy="47.2" r="0.1"/>
<circle fill="none" cx="94.5" cy="70.7" r="0.1"/>
<circle fill="none" cx="70.7" cy="94.5" r="0.1"/>
<circle fill="none" cx="47.2" cy="94.5" r="0.1"/>
<circle fill="none" cx="23.8" cy="94.5" r="0.1"/>
<circle fill="none" cx="0" cy="70.7" r="0.1"/>
<circle fill="none" cx="0" cy="47.2" r="0.1"/>
<circle fill="none" cx="0" cy="23.8" r="0.1"/>
<circle fill="none" cx="23.8" cy="0" r="0.1"/>
</g></g><rect stroke="none" stroke-width="0" fill="#FFFFFF" x="0" y="0" width="0" height="0" transform="translate(94.4,47.1)"/><path stroke="#000000" fill="none" d=""/><text font-family="OpenSansCondensedLight" font-size="14pt" fill="black" transform="translate(94.4,47.1)"/><rect stroke-width="0" fill="none" width="86.2" height="85.9" transform="translate(4.1,4.3)"/><text font-family="OpenSansCondensedLight" font-size="14pt" fill="black" transform="translate(4.1,4.3)" text-anchor="middle"><tspan x="43.1" y="28.2">INVITATION</tspan><tspan x="43.1" y="49.2">SERVICE</tspan><tspan x="43.1" y="70.2">108</tspan></text><path stroke="#000000" fill="none" transform="translate(4.1,4.3)" d="M 29.1 72 57.1 72"/></g><g transform="translate(233,73)"><g><g>
<path d="M94.5,0H0v94.5h94.5V0L94.5,0z" stroke="#000000" stroke-dasharray="none" fill="#FFFFFF"/>
<rect x="4.1" y="4.3" width="86.2" height="85.9" fill="none"/>
<circle fill="none" cx="47.2" cy="0" r="0.1"/>
<circle fill="none" cx="70.7" cy="0" r="0.1"/>
<circle fill="none" cx="94.5" cy="23.8" r="0.1"/>
<circle fill="none" cx="94.5" cy="47.2" r="0.1"/>
<circle fill="none" cx="94.5" cy="70.7" r="0.1"/>
<circle fill="none" cx="70.7" cy="94.5" r="0.1"/>
<circle fill="none" cx="47.2" cy="94.5" r="0.1"/>
<circle fill="none" cx="23.8" cy="94.5" r="0.1"/>
<circle fill="none" cx="0" cy="70.7" r="0.1"/>
<circle fill="none" cx="0" cy="47.2" r="0.1"/>
<circle fill="none" cx="0" cy="23.8" r="0.1"/>
<circle fill="none" cx="23.8" cy="0" r="0.1"/>
</g></g><rect stroke="none" stroke-width="0" fill="#FFFFFF" x="0" y="0" width="0" height="0" transform="translate(94.4,47.1)"/><path stroke="#000000" fill="none" d=""/><text font-family="OpenSansCondensedLight" font-size="14pt" fill="black" transform="translate(94.4,47.1)"/><rect stroke-width="0" fill="none" width="86.2" height="85.9" transform="translate(4.1,4.3)"/><text font-family="OpenSansCondensedLight" font-size="14pt" fill="black" transform="translate(4.1,4.3)" text-anchor="middle"><tspan x="43.1" y="28.2">MATCHMAKER</tspan><tspan x="43.1" y="49.2">SERVICE</tspan><tspan x="43.1" y="70.2">106</tspan></text><path stroke="#000000" fill="none" transform="translate(4.1,4.3)" d="M 29.1 72 57.1 72"/></g><g transform="translate(264,198)"><g><g>
<path d="M142.6,0c-30.9,0,-57,10.9,-66.4,26.4C33.5,29.2,0,49.5,0,74.5c0,26.7,38.4,48.4,85.5,48.4c2.4,0,5,0,7.4,-0.3c8.3,15.8,33.6,27.4,64.7,27.4c25.4,0,47.8,-8.1,58.8,-20c11.8,7,28.5,11.3,47,11.3c29,0,53.9,-10.5,62.7,-25.3c0.6,0,0.6,0,1.3,0c39,0,70.6,-17.9,70.6,-40s-31.6,-40.1,-70.8,-40.1c-7.5,0,-14.3,0.7,-20.4,1.8c-6.3,-15.1,-30.3,-26.4,-58.8,-26.4c-16.7,0,-31.6,3.8,-42.8,10.2C193.4,8.7,169.9,0,142.6,0L142.6,0z" stroke="#000000" stroke-dasharray="none" fill="#FFFFFF"/>
<rect x="36.1" y="46.7" width="319.3" height="56.9" fill="none"/>
<circle fill="none" cx="205.2" cy="21.4" r="0.1"/>
<circle fill="none" cx="261.4" cy="12.1" r="0.1"/>
<circle fill="none" cx="306.9" cy="37.5" r="0.1"/>
<circle fill="none" cx="398" cy="74.6" r="0.1"/>
<circle fill="none" cx="326.2" cy="116" r="0.1"/>
<circle fill="none" cx="268.4" cy="141.1" r="0.1"/>
<circle fill="none" cx="216.4" cy="130" r="0.1"/>
<circle fill="none" cx="155.5" cy="150" r="0.1"/>
<circle fill="none" cx="0" cy="74.5" r="0.1"/>
<circle fill="none" cx="92.8" cy="122.6" r="0.1"/>
<circle fill="none" cx="76.3" cy="26.4" r="0.1"/>
<circle fill="none" cx="142.5" cy="0" r="0.1"/>
</g></g><rect stroke="none" stroke-width="0" fill="#FFFFFF" x="0" y="0" width="0" height="0" transform="translate(397.9,74.5)"/><path stroke="#000000" fill="none" d=""/><text font-family="OpenSansCondensedLight" font-size="14pt" fill="black" transform="translate(397.9,74.5)"/><rect stroke-width="0" fill="none" width="319.3" height="56.9" transform="translate(36.1,46.7)"/><text font-family="OpenSansCondensedLight" font-size="14pt" fill="black" transform="translate(36.1,46.7)" text-anchor="middle"><tspan x="159.7" y="34.7">NETWORK 110</tspan></text><path stroke="#000000" fill="none" transform="translate(36.1,46.7)" d="M 195 37 222.3 37"/></g><g><path stroke="black" stroke-dasharray="none" d="M 270 239 143 175" fill="none"/><path fill="black" stroke="black" d="M 8 0 L 0 4 L 8 8 z" transform="translate(275.2,246.6) scale(1,1) rotate(-152.9)"/><path fill="black" stroke="black" d="M 8 0 L 0 4 L 8 8 z" transform="translate(137.8,167.4) scale(1,1) rotate(27.1)"/><g><g label-idx="0" cursor="move" transform="translate(206.5, 207)"><rect fill="white" rx="3" ry="3" x="0" y="0" width="0" height="0"/><text text-anchor="middle" font-size="14pt" font-family="OpenSansCondensedLight" y="0.8em" display="none" xml:space="preserve" transform="translate(0,0)"/></g></g></g><g><path stroke="black" stroke-dasharray="none" d="M 325 216 307 174" fill="none"/><path fill="black" stroke="black" d="M 8 0 L 0 4 L 8 8 z" transform="translate(324.3,224.6) scale(1,1) rotate(-113.2)"/><path fill="black" stroke="black" d="M 8 0 L 0 4 L 8 8 z" transform="translate(307.7,165.4) scale(1,1) rotate(66.8)"/><g><g label-idx="0" cursor="move" transform="translate(316, 195)"><rect fill="white" rx="3" ry="3" x="0" y="0" width="0" height="0"/><text text-anchor="middle" font-size="14pt" font-family="OpenSansCondensedLight" y="0.8em" display="none" xml:space="preserve" transform="translate(0,0)"/></g></g></g><g><path stroke="black" stroke-dasharray="none" d="M 441 194 441 175" fill="none"/><path fill="black" stroke="black" d="M 8 0 L 0 4 L 8 8 z" transform="translate(437,202) scale(1,1) rotate(-90)"/><path fill="black" stroke="black" d="M 8 0 L 0 4 L 8 8 z" transform="translate(445,167) scale(1,1) rotate(-270)"/><g><g label-idx="0" cursor="move" transform="translate(441, 184.5)"><rect fill="white" rx="3" ry="3" x="0" y="0" width="0" height="0"/><text text-anchor="middle" font-size="14pt" font-family="OpenSansCondensedLight" y="0.8em" display="none" xml:space="preserve" transform="translate(0,0)"/></g></g></g><g transform="translate(128,355)"><g><g>
<g stroke="#000000" stroke-dasharray="none" fill="#FFFFFF">
    <path d="M11,0h41.7c5.9,0,11,4.7,11,10.9v110.8c0,5.9,-4.8,10.9,-11,10.9H11C5.1,132.5,0,127.8,0,121.7V10.9C0,4.7,4.8,0,11,0z"/>
    <path d="M23.4,8.6c0.6,0,1.1,0.3,1.1,1.1c0,0.5,-0.6,1.1,-1.1,1.1c-0.9,0,-1.4,-0.5,-1.4,-1.1C22,8.9,22.5,8.6,23.4,8.6"/>
    <path d="M40.3,8.6c0.6,0,1.1,0.5,1.1,1.1c0,0.5,-0.6,1.1,-1.1,1.1h-12.1c-0.6,0,-1.1,-0.5,-1.1,-1.1s0.6,-1.1,1.1,-1.1L40.3,8.6"/>
    <path d="M31.8,117.7c2.8,0,5.1,2.2,5.1,5s-2.2,5,-5.1,5s-5.1,-2.2,-5.1,-5C26.7,120,29,117.7,31.8,117.7z"/>
    <path d="M4.2,113V18.4h54.9v94.6H4.2L4.2,113z"/>
</g>
<rect x="7.8" y="26" width="48.1" height="80.2" fill="none"/>
<circle fill="none" cx="31.8" cy="0" r="0.1"/>
<circle fill="none" cx="47.4" cy="0" r="0.1"/>
<circle fill="none" cx="63.7" cy="33.4" r="0.1"/>
<circle fill="none" cx="63.7" cy="66.3" r="0.1"/>
<circle fill="none" cx="63.7" cy="99.1" r="0.1"/>
<circle fill="none" cx="47.4" cy="132.5" r="0.1"/>
<circle fill="none" cx="31.8" cy="132.5" r="0.1"/>
<circle fill="none" cx="16.2" cy="132.5" r="0.1"/>
<circle fill="none" cx="0" cy="99.1" r="0.1"/>
<circle fill="none" cx="0" cy="66.3" r="0.1"/>
<circle fill="none" cx="0" cy="33.4" r="0.1"/>
<circle fill="none" cx="16.2" cy="0" r="0.1"/>
</g></g><rect stroke="none" stroke-width="0" fill="#FFFFFF" x="0" y="0" width="0" height="0" transform="translate(63.6,66.2)"/><path stroke="#000000" fill="none" d=""/><text font-family="OpenSansCondensedLight" font-size="14pt" fill="black" transform="translate(63.6,66.2)"/><rect stroke-width="0" fill="none" width="48.1" height="80.2" transform="translate(7.8,26)"/><text font-family="OpenSansCondensedLight" font-size="14pt" fill="black" transform="translate(7.8,26)" text-anchor="middle"><tspan x="24.1" y="14.9">MOBILE</tspan><tspan x="24.1" y="35.9">DEVICE</tspan><tspan x="24.1" y="56.9">A</tspan><tspan x="24.1" y="77.9">112</tspan></text><path stroke="#000000" fill="none" transform="translate(7.8,26)" d="M 10.4 80 37.7 80"/></g><g transform="translate(712,379)"><g><g>
<g stroke="#000000" stroke-dasharray="none" fill="#FFFFFF">
    <path d="M11,0h41.9c5.9,0,11,4.8,11,10.9v111.2c0,5.9,-4.8,10.9,-11,10.9H11C5.1,133.1,0,128.3,0,122.2V10.9C0,4.8,4.8,0,11,0z"/>
    <path d="M23.5,8.7c0.6,0,1.1,0.3,1.1,1.1c0,0.5,-0.6,1.1,-1.1,1.1c-0.9,0,-1.4,-0.5,-1.4,-1.1C22.1,9,22.6,8.7,23.5,8.7"/>
    <path d="M40.4,8.7c0.6,0,1.1,0.5,1.1,1.1c0,0.5,-0.6,1.1,-1.1,1.1h-12.2c-0.6,0,-1.1,-0.5,-1.1,-1.1s0.6,-1.1,1.1,-1.1L40.4,8.7"/>
    <path d="M31.9,118.2c2.8,0,5.1,2.2,5.1,5s-2.2,5,-5.1,5s-5.1,-2.2,-5.1,-5C26.9,120.5,29.1,118.2,31.9,118.2z"/>
    <path d="M4.2,113.5V18.5h55.1v95H4.2L4.2,113.5z"/>
</g>
<rect x="7.8" y="26.1" width="48.3" height="80.5" fill="none"/>
<circle fill="none" cx="32" cy="0" r="0.1"/>
<circle fill="none" cx="47.6" cy="0" r="0.1"/>
<circle fill="none" cx="63.9" cy="33.6" r="0.1"/>
<circle fill="none" cx="63.9" cy="66.5" r="0.1"/>
<circle fill="none" cx="63.9" cy="99.5" r="0.1"/>
<circle fill="none" cx="47.6" cy="133.1" r="0.1"/>
<circle fill="none" cx="32" cy="133.1" r="0.1"/>
<circle fill="none" cx="16.3" cy="133.1" r="0.1"/>
<circle fill="none" cx="0" cy="99.5" r="0.1"/>
<circle fill="none" cx="0" cy="66.5" r="0.1"/>
<circle fill="none" cx="0" cy="33.6" r="0.1"/>
<circle fill="none" cx="16.3" cy="0" r="0.1"/>
</g></g><rect stroke="none" stroke-width="0" fill="#FFFFFF" x="0" y="0" width="0" height="0" transform="translate(63.8,66.4)"/><path stroke="#000000" fill="none" d=""/><text font-family="OpenSansCondensedLight" font-size="14pt" fill="black" transform="translate(63.8,66.4)"/><rect stroke-width="0" fill="none" width="48.3" height="80.5" transform="translate(7.8,26.1)"/><text font-family="OpenSansCondensedLight" font-size="14pt" fill="black" transform="translate(7.8,26.1)" text-anchor="middle"><tspan x="24.2" y="15.1">MOBILE</tspan><tspan x="24.2" y="36.1">DEVICE</tspan><tspan x="24.2" y="57.1">D</tspan><tspan x="24.2" y="78.1">118</tspan></text><path stroke="#000000" fill="none" transform="translate(7.8,26.1)" d="M 10.5 80 37.8 80"/></g><g transform="translate(525,423)"><g><g>
<g stroke="#000000" stroke-dasharray="none" fill="#FFFFFF">
    <path d="M11,0h41.7c5.9,0,11,4.7,11,10.9v110.8c0,5.9,-4.8,10.9,-11,10.9H11C5.1,132.5,0,127.8,0,121.7V10.9C0,4.7,4.8,0,11,0z"/>
    <path d="M23.4,8.6c0.6,0,1.1,0.3,1.1,1.1c0,0.5,-0.6,1.1,-1.1,1.1c-0.9,0,-1.4,-0.5,-1.4,-1.1C22,8.9,22.5,8.6,23.4,8.6"/>
    <path d="M40.3,8.6c0.6,0,1.1,0.5,1.1,1.1c0,0.5,-0.6,1.1,-1.1,1.1h-12.1c-0.6,0,-1.1,-0.5,-1.1,-1.1s0.6,-1.1,1.1,-1.1L40.3,8.6"/>
    <path d="M31.8,117.7c2.8,0,5.1,2.2,5.1,5s-2.2,5,-5.1,5s-5.1,-2.2,-5.1,-5C26.7,120,29,117.7,31.8,117.7z"/>
    <path d="M4.2,113V18.4h54.9v94.6H4.2L4.2,113z"/>
</g>
<rect x="7.8" y="26" width="48.1" height="80.2" fill="none"/>
<circle fill="none" cx="31.8" cy="0" r="0.1"/>
<circle fill="none" cx="47.4" cy="0" r="0.1"/>
<circle fill="none" cx="63.7" cy="33.4" r="0.1"/>
<circle fill="none" cx="63.7" cy="66.3" r="0.1"/>
<circle fill="none" cx="63.7" cy="99.1" r="0.1"/>
<circle fill="none" cx="47.4" cy="132.5" r="0.1"/>
<circle fill="none" cx="31.8" cy="132.5" r="0.1"/>
<circle fill="none" cx="16.2" cy="132.5" r="0.1"/>
<circle fill="none" cx="0" cy="99.1" r="0.1"/>
<circle fill="none" cx="0" cy="66.3" r="0.1"/>
<circle fill="none" cx="0" cy="33.4" r="0.1"/>
<circle fill="none" cx="16.2" cy="0" r="0.1"/>
</g></g><rect stroke="none" stroke-width="0" fill="#FFFFFF" x="0" y="0" width="0" height="0" transform="translate(63.6,66.2)"/><path stroke="#000000" fill="none" d=""/><text font-family="OpenSansCondensedLight" font-size="14pt" fill="black" transform="translate(63.6,66.2)"/><rect stroke-width="0" fill="none" width="48.1" height="80.2" transform="translate(7.8,26)"/><text font-family="OpenSansCondensedLight" font-size="14pt" fill="black" transform="translate(7.8,26)" text-anchor="middle"><tspan x="24.1" y="14.9">MOBILE</tspan><tspan x="24.1" y="35.9">DEVICE</tspan><tspan x="24.1" y="56.9">C</tspan><tspan x="24.1" y="77.9">116</tspan></text><path stroke="#000000" fill="none" transform="translate(7.8,26)" d="M 10.4 80 37.7 80"/></g><g transform="translate(300,420)"><g><g>
<g stroke="#000000" stroke-dasharray="none" fill="#FFFFFF">
    <path d="M11,0h41.9c5.9,0,11,4.8,11,10.9v111.2c0,5.9,-4.8,10.9,-11,10.9H11C5.1,133.1,0,128.3,0,122.2V10.9C0,4.8,4.8,0,11,0z"/>
    <path d="M23.5,8.7c0.6,0,1.1,0.3,1.1,1.1c0,0.5,-0.6,1.1,-1.1,1.1c-0.9,0,-1.4,-0.5,-1.4,-1.1C22.1,9,22.6,8.7,23.5,8.7"/>
    <path d="M40.4,8.7c0.6,0,1.1,0.5,1.1,1.1c0,0.5,-0.6,1.1,-1.1,1.1h-12.2c-0.6,0,-1.1,-0.5,-1.1,-1.1s0.6,-1.1,1.1,-1.1L40.4,8.7"/>
    <path d="M31.9,118.2c2.8,0,5.1,2.2,5.1,5s-2.2,5,-5.1,5s-5.1,-2.2,-5.1,-5C26.9,120.5,29.1,118.2,31.9,118.2z"/>
    <path d="M4.2,113.5V18.5h55.1v95H4.2L4.2,113.5z"/>
</g>
<rect x="7.8" y="26.1" width="48.3" height="80.5" fill="none"/>
<circle fill="none" cx="32" cy="0" r="0.1"/>
<circle fill="none" cx="47.6" cy="0" r="0.1"/>
<circle fill="none" cx="63.9" cy="33.6" r="0.1"/>
<circle fill="none" cx="63.9" cy="66.5" r="0.1"/>
<circle fill="none" cx="63.9" cy="99.5" r="0.1"/>
<circle fill="none" cx="47.6" cy="133.1" r="0.1"/>
<circle fill="none" cx="32" cy="133.1" r="0.1"/>
<circle fill="none" cx="16.3" cy="133.1" r="0.1"/>
<circle fill="none" cx="0" cy="99.5" r="0.1"/>
<circle fill="none" cx="0" cy="66.5" r="0.1"/>
<circle fill="none" cx="0" cy="33.6" r="0.1"/>
<circle fill="none" cx="16.3" cy="0" r="0.1"/>
</g></g><rect stroke="none" stroke-width="0" fill="#FFFFFF" x="0" y="0" width="0" height="0" transform="translate(63.8,66.4)"/><path stroke="#000000" fill="none" d=""/><text font-family="OpenSansCondensedLight" font-size="14pt" fill="black" transform="translate(63.8,66.4)"/><rect stroke-width="0" fill="none" width="48.3" height="80.5" transform="translate(7.8,26.1)"/><text font-family="OpenSansCondensedLight" font-size="14pt" fill="black" transform="translate(7.8,26.1)" text-anchor="middle"><tspan x="24.2" y="15.1">MOBILE</tspan><tspan x="24.2" y="36.1">DEVICE</tspan><tspan x="24.2" y="57.1">B</tspan><tspan x="24.2" y="78.1">114</tspan></text><path stroke="#000000" fill="none" transform="translate(7.8,26.1)" d="M 10.5 80 37.8 80"/></g><g><path stroke="black" stroke-dasharray="none" d="M 181 350 258 277" fill="none"/><path fill="black" stroke="black" d="M 8 0 L 0 4 L 8 8 z" transform="translate(172.3,352.1) scale(1,1) rotate(-43)"/><path fill="black" stroke="black" d="M 8 0 L 0 4 L 8 8 z" transform="translate(266.7,274.9) scale(1,1) rotate(-223)"/><g><g label-idx="0" cursor="move" transform="translate(219.5, 313.5)"><rect fill="white" rx="3" ry="3" x="0" y="0" width="0" height="0"/><text text-anchor="middle" font-size="14pt" font-family="OpenSansCondensedLight" y="0.8em" display="none" xml:space="preserve" transform="translate(0,0)"/></g></g></g><g><path stroke="black" stroke-dasharray="none" d="M 349 412 356 329" fill="none"/><path fill="black" stroke="black" d="M 8 0 L 0 4 L 8 8 z" transform="translate(344,419.6) scale(1,1) rotate(-84.8)"/><path fill="black" stroke="black" d="M 8 0 L 0 4 L 8 8 z" transform="translate(361,321.4) scale(1,1) rotate(-264.8)"/><g><g label-idx="0" cursor="move" transform="translate(352.5, 370.5)"><rect fill="white" rx="3" ry="3" x="0" y="0" width="0" height="0"/><text text-anchor="middle" font-size="14pt" font-family="OpenSansCondensedLight" y="0.8em" display="none" xml:space="preserve" transform="translate(0,0)"/></g></g></g><g><path stroke="black" stroke-dasharray="none" d="M 540 415 533 347" fill="none"/><path fill="black" stroke="black" d="M 8 0 L 0 4 L 8 8 z" transform="translate(537,423.4) scale(1,1) rotate(-96.1)"/><path fill="black" stroke="black" d="M 8 0 L 0 4 L 8 8 z" transform="translate(536,338.6) scale(1,1) rotate(83.9)"/><g><g label-idx="0" cursor="move" transform="translate(536.5, 381)"><rect fill="white" rx="3" ry="3" x="0" y="0" width="0" height="0"/><text text-anchor="middle" font-size="14pt" font-family="OpenSansCondensedLight" y="0.8em" display="none" xml:space="preserve" transform="translate(0,0)"/></g></g></g><g><path stroke="black" stroke-dasharray="none" d="M 722 374 651 309" fill="none"/><path fill="black" stroke="black" d="M 8 0 L 0 4 L 8 8 z" transform="translate(725.3,382) scale(1,1) rotate(-137.9)"/><path fill="black" stroke="black" d="M 8 0 L 0 4 L 8 8 z" transform="translate(647.7,301) scale(1,1) rotate(42.1)"/><g><g label-idx="0" cursor="move" transform="translate(686.5, 341.5)"><rect fill="white" rx="3" ry="3" x="0" y="0" width="0" height="0"/><text text-anchor="middle" font-size="14pt" font-family="OpenSansCondensedLight" y="0.8em" display="none" xml:space="preserve" transform="translate(0,0)"/></g></g></g><g transform="translate(553,73)"><g><g>
<path d="M95,0H0v94h95V0L95,0z" stroke="#000000" stroke-dasharray="none" fill="#FFFFFF"/>
<rect x="4.2" y="4.3" width="86.7" height="85.4" fill="none"/>
<circle fill="none" cx="47.5" cy="0" r="0.1"/>
<circle fill="none" cx="71" cy="0" r="0.1"/>
<circle fill="none" cx="95" cy="23.7" r="0.1"/>
<circle fill="none" cx="95" cy="47" r="0.1"/>
<circle fill="none" cx="95" cy="70.3" r="0.1"/>
<circle fill="none" cx="71" cy="94" r="0.1"/>
<circle fill="none" cx="47.5" cy="94" r="0.1"/>
<circle fill="none" cx="24" cy="94" r="0.1"/>
<circle fill="none" cx="0" cy="70.3" r="0.1"/>
<circle fill="none" cx="0" cy="47" r="0.1"/>
<circle fill="none" cx="0" cy="23.7" r="0.1"/>
<circle fill="none" cx="24" cy="0" r="0.1"/>
</g></g><rect stroke="none" stroke-width="0" fill="#FFFFFF" x="0" y="0" width="0" height="0" transform="translate(94.9,46.9)"/><path stroke="#000000" fill="none" d=""/><text font-family="OpenSansCondensedLight" font-size="14pt" fill="black" transform="translate(94.9,46.9)"/><rect stroke-width="0" fill="none" width="86.7" height="85.4" transform="translate(4.2,4.3)"/><text font-family="OpenSansCondensedLight" font-size="14pt" fill="black" transform="translate(4.2,4.3)" text-anchor="middle"><tspan x="43.3" y="17.5">REGISTRATION</tspan><tspan x="43.3" y="38.5">/DIRECTORY</tspan><tspan x="43.3" y="59.5">SERVICE</tspan><tspan x="43.3" y="80.5">502</tspan></text><path stroke="#000000" fill="none" transform="translate(4.2,4.3)" d="M 29.3 83 57.3 83"/></g><g transform="translate(709,73)"><g><g>
<path d="M94.5,0H0v94.5h94.5V0L94.5,0z" stroke="#000000" stroke-dasharray="none" fill="#FFFFFF"/>
<rect x="4.1" y="4.3" width="86.2" height="85.9" fill="none"/>
<circle fill="none" cx="47.2" cy="0" r="0.1"/>
<circle fill="none" cx="70.7" cy="0" r="0.1"/>
<circle fill="none" cx="94.5" cy="23.8" r="0.1"/>
<circle fill="none" cx="94.5" cy="47.2" r="0.1"/>
<circle fill="none" cx="94.5" cy="70.7" r="0.1"/>
<circle fill="none" cx="70.7" cy="94.5" r="0.1"/>
<circle fill="none" cx="47.2" cy="94.5" r="0.1"/>
<circle fill="none" cx="23.8" cy="94.5" r="0.1"/>
<circle fill="none" cx="0" cy="70.7" r="0.1"/>
<circle fill="none" cx="0" cy="47.2" r="0.1"/>
<circle fill="none" cx="0" cy="23.8" r="0.1"/>
<circle fill="none" cx="23.8" cy="0" r="0.1"/>
</g></g><rect stroke="none" stroke-width="0" fill="#FFFFFF" x="0" y="0" width="0" height="0" transform="translate(94.4,47.1)"/><path stroke="#000000" fill="none" d=""/><text font-family="OpenSansCondensedLight" font-size="14pt" fill="black" transform="translate(94.4,47.1)"/><rect stroke-width="0" fill="none" width="86.2" height="85.9" transform="translate(4.1,4.3)"/><text font-family="OpenSansCondensedLight" font-size="14pt" fill="black" transform="translate(4.1,4.3)" text-anchor="middle"><tspan x="43.1" y="17.7">PUSH</tspan><tspan x="43.1" y="38.7">NOTIFICATION</tspan><tspan x="43.1" y="59.7">SERVICE</tspan><tspan x="43.1" y="80.7">504</tspan></text><path stroke="#000000" fill="none" transform="translate(4.1,4.3)" d="M 29.1 83 57.1 83"/></g><g><path stroke="black" stroke-dasharray="none" d="M 571 172 531 205" fill="none"/><path fill="black" stroke="black" d="M 8 0 L 0 4 L 8 8 z" transform="translate(579.5,170.1) scale(1,1) rotate(-219.6)"/><path fill="black" stroke="black" d="M 8 0 L 0 4 L 8 8 z" transform="translate(522.5,206.9) scale(1,1) rotate(-39.6)"/><g><g label-idx="0" cursor="move" transform="translate(551, 188.5)"><rect fill="white" rx="3" ry="3" x="0" y="0" width="0" height="0"/><text text-anchor="middle" font-size="14pt" font-family="OpenSansCondensedLight" y="0.8em" display="none" xml:space="preserve" transform="translate(0,0)"/></g></g></g><g><path stroke="black" stroke-dasharray="none" d="M 727 172 647 235" fill="none"/><path fill="black" stroke="black" d="M 8 0 L 0 4 L 8 8 z" transform="translate(735.5,170.1) scale(1,1) rotate(-218.4)"/><path fill="black" stroke="black" d="M 8 0 L 0 4 L 8 8 z" transform="translate(638.5,236.9) scale(1,1) rotate(-38.4)"/><g><g label-idx="0" cursor="move" transform="translate(687, 203.5)"><rect fill="white" rx="3" ry="3" x="0" y="0" width="0" height="0"/><text text-anchor="middle" font-size="14pt" font-family="OpenSansCondensedLight" y="0.8em" display="none" xml:space="preserve" transform="translate(0,0)"/></g></g></g><g transform="translate(151,298)"><g><g>
<rect y="0" fill="#FFFFFF" width="30.2" height="30.2" stroke="none" stroke-dasharray="none"/>
<rect x="2.1" y="2.3" fill="none" width="26" height="25.7"/>
<circle fill="none" cx="15.1" cy="0" r="0.1"/>
<circle fill="none" cx="23.5" cy="0" r="0.1"/>
<circle fill="none" cx="30.2" cy="7.3" r="0.1"/>
<circle fill="none" cx="30.2" cy="14.7" r="0.1"/>
<circle fill="none" cx="30.2" cy="23" r="0.1"/>
<circle fill="none" cx="23.5" cy="30.2" r="0.1"/>
<circle fill="none" cx="15.1" cy="30.2" r="0.1"/>
<circle fill="none" cx="7.6" cy="30.2" r="0.1"/>
<circle fill="none" cx="0" cy="23" r="0.1"/>
<circle fill="none" cx="0" cy="14.7" r="0.1"/>
<circle fill="none" cx="0" cy="7.3" r="0.1"/>
<circle fill="none" cx="7.7" cy="0" r="0.1"/>
</g></g><rect stroke="none" stroke-width="1" fill="none" x="0" y="0" width="40" height="20" transform="translate(70.1,4.6)"/><path stroke="#000000" fill="none" d="M30.2,14.7 C47.2,31.6 53.2,-2.3 70.1 14.6"/><text font-family="OpenSansCondensedLight" font-size="14pt" fill="black" transform="translate(70.1,4.6)"/><rect stroke-width="0" fill="none" width="26" height="25.7" transform="translate(2.1,2.3)"/><text font-family="OpenSansCondensedLight" font-size="14pt" fill="black" text-decoration="none" transform="translate(2.1,2.3)" text-anchor="middle"><tspan x="13" y="19.2">120</tspan></text><path stroke="#000000" fill="none" transform="translate(2.1,2.3)"/></g><g transform="translate(282,366)"><g><g>
<rect y="0" fill="#FFFFFF" width="30.2" height="30.2" stroke="none" stroke-dasharray="none"/>
<rect x="2.1" y="2.3" fill="none" width="26" height="25.7"/>
<circle fill="none" cx="15.1" cy="0" r="0.1"/>
<circle fill="none" cx="23.5" cy="0" r="0.1"/>
<circle fill="none" cx="30.2" cy="7.3" r="0.1"/>
<circle fill="none" cx="30.2" cy="14.7" r="0.1"/>
<circle fill="none" cx="30.2" cy="23" r="0.1"/>
<circle fill="none" cx="23.5" cy="30.2" r="0.1"/>
<circle fill="none" cx="15.1" cy="30.2" r="0.1"/>
<circle fill="none" cx="7.6" cy="30.2" r="0.1"/>
<circle fill="none" cx="0" cy="23" r="0.1"/>
<circle fill="none" cx="0" cy="14.7" r="0.1"/>
<circle fill="none" cx="0" cy="7.3" r="0.1"/>
<circle fill="none" cx="7.7" cy="0" r="0.1"/>
</g></g><rect stroke="none" stroke-width="1" fill="none" x="0" y="0" width="40" height="20" transform="translate(70.1,4.6)"/><path stroke="#000000" fill="none" d="M30.2,14.7 C47.2,31.6 53.2,-2.3 70.1 14.6"/><text font-family="OpenSansCondensedLight" font-size="14pt" fill="black" transform="translate(70.1,4.6)"/><rect stroke-width="0" fill="none" width="26" height="25.7" transform="translate(2.1,2.3)"/><text font-family="OpenSansCondensedLight" font-size="14pt" fill="black" text-decoration="none" transform="translate(2.1,2.3)" text-anchor="middle"><tspan x="13" y="19.2">122</tspan></text><path stroke="#000000" fill="none" transform="translate(2.1,2.3)"/></g><g transform="translate(469,379)"><g><g>
<rect y="0" fill="#FFFFFF" width="30.2" height="30.2" stroke="none" stroke-dasharray="none"/>
<rect x="2.1" y="2.3" fill="none" width="26" height="25.7"/>
<circle fill="none" cx="15.1" cy="0" r="0.1"/>
<circle fill="none" cx="23.5" cy="0" r="0.1"/>
<circle fill="none" cx="30.2" cy="7.3" r="0.1"/>
<circle fill="none" cx="30.2" cy="14.7" r="0.1"/>
<circle fill="none" cx="30.2" cy="23" r="0.1"/>
<circle fill="none" cx="23.5" cy="30.2" r="0.1"/>
<circle fill="none" cx="15.1" cy="30.2" r="0.1"/>
<circle fill="none" cx="7.6" cy="30.2" r="0.1"/>
<circle fill="none" cx="0" cy="23" r="0.1"/>
<circle fill="none" cx="0" cy="14.7" r="0.1"/>
<circle fill="none" cx="0" cy="7.3" r="0.1"/>
<circle fill="none" cx="7.7" cy="0" r="0.1"/>
</g></g><rect stroke="none" stroke-width="1" fill="none" x="0" y="0" width="40" height="20" transform="translate(70.1,4.6)"/><path stroke="#000000" fill="none" d="M30.2,14.7 C47.2,31.6 53.2,-2.3 70.1 14.6"/><text font-family="OpenSansCondensedLight" font-size="14pt" fill="black" transform="translate(70.1,4.6)"/><rect stroke-width="0" fill="none" width="26" height="25.7" transform="translate(2.1,2.3)"/><text font-family="OpenSansCondensedLight" font-size="14pt" fill="black" text-decoration="none" transform="translate(2.1,2.3)" text-anchor="middle"><tspan x="13" y="19.2">124</tspan></text><path stroke="#000000" fill="none" transform="translate(2.1,2.3)"/></g><g transform="translate(646,343)"><g><g>
<rect y="0" fill="#FFFFFF" width="30.2" height="30.2" stroke="none" stroke-dasharray="none"/>
<rect x="2.1" y="2.3" fill="none" width="26" height="25.7"/>
<circle fill="none" cx="15.1" cy="0" r="0.1"/>
<circle fill="none" cx="23.5" cy="0" r="0.1"/>
<circle fill="none" cx="30.2" cy="7.3" r="0.1"/>
<circle fill="none" cx="30.2" cy="14.7" r="0.1"/>
<circle fill="none" cx="30.2" cy="23" r="0.1"/>
<circle fill="none" cx="23.5" cy="30.2" r="0.1"/>
<circle fill="none" cx="15.1" cy="30.2" r="0.1"/>
<circle fill="none" cx="7.6" cy="30.2" r="0.1"/>
<circle fill="none" cx="0" cy="23" r="0.1"/>
<circle fill="none" cx="0" cy="14.7" r="0.1"/>
<circle fill="none" cx="0" cy="7.3" r="0.1"/>
<circle fill="none" cx="7.7" cy="0" r="0.1"/>
</g></g><rect stroke="none" stroke-width="1" fill="none" x="0" y="0" width="40" height="20" transform="translate(70.1,4.6)"/><path stroke="#000000" fill="none" d="M30.2,14.7 C47.2,31.6 53.2,-2.3 70.1 14.6"/><text font-family="OpenSansCondensedLight" font-size="14pt" fill="black" transform="translate(70.1,4.6)"/><rect stroke-width="0" fill="none" width="26" height="25.7" transform="translate(2.1,2.3)"/><text font-family="OpenSansCondensedLight" font-size="14pt" fill="black" text-decoration="none" transform="translate(2.1,2.3)" text-anchor="middle"><tspan x="13" y="19.2">126</tspan></text><path stroke="#000000" fill="none" transform="translate(2.1,2.3)"/></g><g transform="translate(779,229)"><g><g>
<path d="M94.5,0H0v94.5h94.5V0L94.5,0z" stroke="#000000" stroke-dasharray="none" fill="#FFFFFF"/>
<rect x="4.1" y="4.3" width="86.2" height="85.9" fill="none"/>
<circle fill="none" cx="47.2" cy="0" r="0.1"/>
<circle fill="none" cx="70.7" cy="0" r="0.1"/>
<circle fill="none" cx="94.5" cy="23.8" r="0.1"/>
<circle fill="none" cx="94.5" cy="47.2" r="0.1"/>
<circle fill="none" cx="94.5" cy="70.7" r="0.1"/>
<circle fill="none" cx="70.7" cy="94.5" r="0.1"/>
<circle fill="none" cx="47.2" cy="94.5" r="0.1"/>
<circle fill="none" cx="23.8" cy="94.5" r="0.1"/>
<circle fill="none" cx="0" cy="70.7" r="0.1"/>
<circle fill="none" cx="0" cy="47.2" r="0.1"/>
<circle fill="none" cx="0" cy="23.8" r="0.1"/>
<circle fill="none" cx="23.8" cy="0" r="0.1"/>
</g></g><rect stroke="none" stroke-width="0" fill="#FFFFFF" x="0" y="0" width="0" height="0" transform="translate(94.4,47.1)"/><path stroke="#000000" fill="none" d=""/><text font-family="OpenSansCondensedLight" font-size="14pt" fill="black" transform="translate(94.4,47.1)"/><rect stroke-width="0" fill="none" width="86.2" height="85.9" transform="translate(4.1,4.3)"/><text font-family="OpenSansCondensedLight" font-size="14pt" fill="black" transform="translate(4.1,4.3)" text-anchor="middle"><tspan x="43.1" y="28.2">RELAY</tspan><tspan x="43.1" y="49.2">SERVICE</tspan><tspan x="43.1" y="70.2">506</tspan></text><path stroke="#000000" fill="none" transform="translate(4.1,4.3)" d="M 29.1 72 57.1 72"/></g><g><path stroke="black" stroke-dasharray="none" d="M 771 273 670 273" fill="none"/><path fill="black" stroke="black" d="M 8 0 L 0 4 L 8 8 z" transform="translate(779,277) scale(1,1) rotate(-180)"/><path fill="black" stroke="black" d="M 8 0 L 0 4 L 8 8 z" transform="translate(662,269) scale(1,1) rotate(0)"/><g><g label-idx="0" cursor="move" transform="translate(720.5, 273)"><rect fill="white" rx="3" ry="3" x="0" y="0" width="0" height="0"/><text text-anchor="middle" font-size="14pt" font-family="OpenSansCondensedLight" y="0.8em" display="none" xml:space="preserve" transform="translate(0,0)"/></g></g></g></g><defs/></svg>